<?xml version="1.0" encoding="UTF-8" standalone="no"?>
<!-- Created with Inkscape (http://www.inkscape.org/) -->

<svg
   width="129.51619mm"
   height="148.7028mm"
   viewBox="0 0 129.51619 148.7028"
   version="1.1"
   id="svg68780"
   inkscape:version="1.1 (c68e22c387, 2021-05-23)"
   sodipodi:docname="60deg-sectors.svg"
   xmlns:inkscape="http://www.inkscape.org/namespaces/inkscape"
   xmlns:sodipodi="http://sodipodi.sourceforge.net/DTD/sodipodi-0.dtd"
   xmlns="http://www.w3.org/2000/svg"
   xmlns:svg="http://www.w3.org/2000/svg">
  <sodipodi:namedview
     id="namedview68782"
     pagecolor="#ffffff"
     bordercolor="#666666"
     borderopacity="1.0"
     inkscape:pageshadow="2"
     inkscape:pageopacity="0.0"
     inkscape:pagecheckerboard="0"
     inkscape:document-units="mm"
     showgrid="false"
     lock-margins="true"
     fit-margin-top="2"
     fit-margin-left="2"
     fit-margin-right="2"
     fit-margin-bottom="2"
     inkscape:zoom="0.5"
     inkscape:cx="217"
     inkscape:cy="277"
     inkscape:window-width="2560"
     inkscape:window-height="1377"
     inkscape:window-x="-8"
     inkscape:window-y="-8"
     inkscape:window-maximized="1"
     inkscape:current-layer="layer1"
     inkscape:snap-page="true" />
  <defs
     id="defs68777" />
  <g
     inkscape:label="Layer 1"
     inkscape:groupmode="layer"
     id="layer1"
     transform="translate(-47.712986,-75.482999)">
    <rect
       style="fill:#ffffff;stroke-width:0.529167"
       id="rect872"
       width="129.51619"
       height="148.7028"
       x="47.712986"
       y="75.483002" />
    <g
       id="g611356"
       inkscape:export-filename="C:\Users\Kurt\60deg-sectors.png"
       inkscape:export-xdpi="300"
       inkscape:export-ydpi="300"
       style="display:inline"
       transform="translate(-1797.7566,-887.8732)">
      <polyline
         stroke-width="1.90155"
         points="74.88,384.48 75.2437,384.248 75.6073,384.016 75.971,383.784 76.3347,383.553 76.6983,383.321 77.062,383.089 77.4256,382.857 77.7893,382.625 78.153,382.393 78.5166,382.162 78.8803,381.93 79.244,381.698 79.6076,381.466 79.9713,381.234 80.3349,381.002 80.6986,380.771 81.0623,380.539 81.4259,380.307 81.7896,380.075 82.1533,379.843 82.5169,379.611 82.8806,379.38 83.2442,379.148 83.6079,378.916 83.9716,378.684 84.3352,378.452 84.6989,378.22 85.0626,377.989 85.4262,377.757 85.7899,377.525 86.1535,377.293 86.5172,377.061 86.8809,376.829 87.2445,376.598 87.6082,376.366 87.9719,376.134 88.3355,375.902 88.6992,375.67 89.0628,375.438 89.4265,375.207 89.7902,374.975 90.1538,374.743 90.5175,374.511 90.8811,374.279 91.2448,374.047 91.6085,373.815 91.9722,373.584 92.3358,373.352 92.6995,373.12 93.0631,372.888 93.4268,372.656 93.7905,372.424 94.1541,372.193 94.5178,371.961 94.8814,371.729 95.2451,371.497 95.6088,371.265 95.9724,371.033 96.3361,370.802 96.6998,370.57 97.0634,370.338 97.4271,370.106 97.7907,369.874 98.1544,369.642 98.5181,369.411 98.8817,369.179 99.2454,368.947 99.6091,368.715 99.9727,368.483 100.336,368.251 100.7,368.02 101.064,367.788 101.427,367.556 101.791,367.324 102.155,367.092 102.518,366.86 102.882,366.629 103.246,366.397 103.609,366.165 103.973,365.933 104.337,365.701 104.7,365.469 105.064,365.237 105.428,365.006 105.791,364.774 106.155,364.542 106.519,364.31 106.882,364.078 107.246,363.846 107.61,363.615 107.973,363.383 108.337,363.151 108.701,362.919 109.064,362.687 109.428,362.455 109.792,362.224 110.155,361.992 110.519,361.76 110.883,361.528 111.246,361.296 111.61,361.064 111.974,360.833 112.337,360.601 112.701,360.369 113.065,360.137 113.428,359.905 113.792,359.673 114.156,359.442 114.519,359.21 114.883,358.978 115.247,358.746 115.61,358.514 115.974,358.282 116.338,358.051 116.701,357.819 117.065,357.587 117.429,357.355 117.792,357.123 118.156,356.891 118.52,356.66 118.883,356.428 119.247,356.196 119.611,355.964 119.974,355.732 120.338,355.5 120.701,355.268 121.065,355.037 121.429,354.805 121.792,354.573 122.156,354.341 122.52,354.109 122.883,353.878 123.247,353.646 123.611,353.414 123.974,353.182 124.338,352.95 124.702,352.718 125.065,352.486 125.429,352.255 125.793,352.023 126.156,351.791 126.52,351.559 126.884,351.327 127.247,351.095 127.611,350.864 127.975,350.632 128.338,350.4 128.702,350.168 129.066,349.936 129.429,349.704 129.793,349.473 130.157,349.241 130.52,349.009 130.884,348.777 131.248,348.545 131.611,348.313 131.975,348.082 132.339,347.85 132.702,347.618 133.066,347.386 133.43,347.154 133.793,346.922 134.157,346.691 134.521,346.459 134.884,346.227 135.248,345.995 135.612,345.763 135.975,345.531 136.339,345.299 136.703,345.068 137.066,344.836 137.43,344.604 137.794,344.372 138.157,344.14 138.521,343.908 138.885,343.677 139.248,343.445 139.612,343.213 139.976,342.981 140.339,342.749 140.703,342.517 141.067,342.286 141.43,342.054 141.794,341.822 142.158,341.59 142.521,341.358 142.885,341.126 143.249,340.895 143.612,340.663 143.976,340.431 144.34,340.199 144.703,339.967 145.067,339.735 145.431,339.504 145.794,339.272 146.158,339.04 146.522,338.808 146.885,338.576 147.249,338.344 147.613,338.113"
         fill="none"
         stroke="#0071bc"
         stroke-linecap="butt"
         stroke-linejoin="round"
         id="polyline219690-9-3-8"
         transform="matrix(0.33796859,0.19512625,-0.17638888,0.30551451,1952.7387,905.6322)"
         style="display:inline"
         inkscape:transform-center-x="-14.192045"
         inkscape:transform-center-y="-8.1785819" />
      <path
         id="path610144"
         style="display:inline;fill:none;stroke:#000000;stroke-width:0.264583;stroke-miterlimit:4;stroke-dasharray:none;stroke-opacity:1"
         inkscape:transform-center-x="-62.217299"
         inkscape:transform-center-y="4.1501788e-05"
         d="m 1910.2277,1037.7075 0.5389,0.311 0.5388,0.3111 0.5388,0.3111 0.5388,0.3111 0.5388,0.3111 0.5389,0.3111 0.5388,0.3111 0.5388,0.3111 0.5388,0.311 0.5389,0.3111 0.5387,0.3111 0.5389,0.3111 0.5388,0.3111 0.5388,0.3111 0.5388,0.3111 0.539,0.3111 0.5387,0.3111 0.5387,0.311 0.5388,0.311 0.539,0.3112 0.5387,0.3111 0.5388,0.311 0.539,0.3112 0.5387,0.3111 0.5388,0.311 0.5387,0.311 0.539,0.3112 0.5388,0.3111 0.5387,0.311 0.539,0.3112 0.5388,0.3111 0.5387,0.311 0.5387,0.311 0.5391,0.3113 0.5387,0.311 0.5387,0.311 0.5391,0.3113 0.5387,0.311 0.5387,0.311 0.5387,0.311 0.5391,0.3113 0.5387,0.311 0.5388,0.311 0.539,0.3113 0.5387,0.311 0.5388,0.311 0.5387,0.3111 0.539,0.3112 0.5388,0.311 0.5387,0.311 0.539,0.3113 0.5388,0.311 0.5387,0.311 0.5387,0.3111 0.5391,0.3112 0.5387,0.311 0.5387,0.3111 0.5391,0.3112 0.5387,0.311 0.5387,0.3111 0.5387,0.311 0.5391,0.3112 0.5387,0.311 0.5387,0.3111 0.5391,0.3112 0.5387,0.311 0.5388,0.3111 0.5387,0.311 0.539,0.3112 0.5388,0.311 0.5387,0.3111 0.539,0.3112 0.5388,0.311 0.5387,0.3111 0.5387,0.311 0.539,0.3112 0.5388,0.311 0.5387,0.3111 0.539,0.3112 0.5388,0.311 0.5387,0.3111 0.5387,0.311 0.5391,0.3112 0.5387,0.3111 0.5387,0.311 0.5391,0.3112 0.5387,0.3111 0.5387,0.311 0.5387,0.311 0.5391,0.3112 0.5387,0.3111 0.5388,0.311 0.539,0.3112 0.5387,0.3111 0.5388,0.311 0.5387,0.311 0.539,0.3113 0.5388,0.311 0.5387,0.311 0.539,0.3112 0.5388,0.3111 0.5387,0.311 0.5387,0.311 0.5391,0.3113 0.5387,0.311 0.5387,0.311 0.5391,0.3112 0.5387,0.3111 0.5387,0.311 0.5387,0.3111 0.5391,0.3112 0.5387,0.311 0.5387,0.311 0.5391,0.3112 0.5387,0.3111 0.5387,0.311 0.1887,0.109" />
      <path
         id="path610117"
         style="display:inline;fill:none;stroke:#000000;stroke-width:0.264583;stroke-linejoin:round;stroke-miterlimit:4;stroke-dasharray:none"
         inkscape:transform-center-x="-31.14971"
         inkscape:transform-center-y="-53.844033"
         d="m 1910.2278,1037.7075 0.6707,-0.3756 0.5382,-0.31 0.5384,-0.3104 0.5382,-0.31 0.5384,-0.3104 0.5383,-0.3101 0.5384,-0.3103 0.5382,-0.3101 0.5384,-0.3104 0.5384,-0.3103 0.5382,-0.3101 0.5384,-0.3104 0.5383,-0.31 0.5384,-0.3104 0.5382,-0.3101 0.5384,-0.3103 0.5382,-0.3101 0.5383,-0.3103 0.5383,-0.3101 0.5385,-0.3104 0.5384,-0.3103 0.5382,-0.3101 0.5384,-0.3104 0.5381,-0.31 0.5384,-0.3104 0.5383,-0.3101 0.5384,-0.3103 0.5383,-0.3101 0.5384,-0.3104 0.5384,-0.3103 0.5381,-0.3101 0.5386,-0.3103 0.5382,-0.31 0.5384,-0.3104 0.5381,-0.3101 0.5384,-0.3104 0.5382,-0.3101 0.5383,-0.3104 0.5386,-0.3099 0.5382,-0.3104 0.5384,-0.3104 0.5382,-0.3101 0.5384,-0.3104 0.5382,-0.3101 0.5383,-0.3103 0.5384,-0.3099 0.5384,-0.3104 0.5383,-0.3101 0.5383,-0.3104 0.5384,-0.3104 0.5381,-0.3101 0.5384,-0.3104 0.5384,-0.3099 0.5384,-0.3104 0.5383,-0.3101 0.5383,-0.3104 0.5381,-0.3101 0.5384,-0.3103 0.5384,-0.3104 0.5385,-0.3099 0.5384,-0.3104 0.5381,-0.3101 0.5384,-0.3104 0.5381,-0.3101 0.5384,-0.3104 0.5382,-0.3101 0.5387,-0.3102 0.5382,-0.3101 0.5383,-0.3104 0.5384,-0.3104 0.5382,-0.31 0.5382,-0.3104 0.5383,-0.3101 0.5387,-0.3102 0.5382,-0.3101 0.5383,-0.3104 0.5382,-0.3101 0.5382,-0.3104 0.5384,-0.3104 0.5383,-0.3101 0.5387,-0.3102 0.5381,-0.3101 0.5384,-0.3104 0.5382,-0.31 0.5382,-0.3104 0.5383,-0.3101 0.5384,-0.3104 0.5385,-0.3099 0.5383,-0.3104 0.5384,-0.3104 0.5382,-0.3101 0.5383,-0.3104 0.5382,-0.3101 0.5384,-0.3104 0.5384,-0.3099 0.5384,-0.3104 0.5382,-0.31 0.5384,-0.3104 0.5383,-0.3104 0.5382,-0.3101 0.5383,-0.3104 0.5385,-0.3099 0.5384,-0.3104 0.5382,-0.3101 0.5383,-0.3104 0.5382,-0.3101 0.5384,-0.3104 0.5383,-0.3104 0.5385,-0.3099 0.5384,-0.3103 0.5382,-0.3101 0.5383,-0.3104 0.5382,-0.3101 0.5384,-0.3104 0.5381,-0.3101 0.5386,-0.3102 0.1138,-0.066" />
      <path
         id="path610123"
         style="display:inline;fill:none;stroke:#000000;stroke-width:0.264583;stroke-miterlimit:4;stroke-dasharray:none;stroke-opacity:1"
         inkscape:transform-center-x="-73.900335"
         inkscape:transform-center-y="-8.3011919"
         d="m 1943.1201,1037.6686 -0.5347,0.1206 -0.5266,0.1278 -0.5177,0.1349 -0.5084,0.1423 -0.4986,0.1501 -0.4872,0.1586 -0.4756,0.1666 -0.4631,0.1754 -0.4495,0.1846 -0.4353,0.1935 -0.4197,0.2033 -0.4035,0.2126 -0.3867,0.2225 -0.3682,0.2326 -0.3494,0.2423 -0.3291,0.2524 -0.3083,0.2623 -0.2862,0.2718 -0.2639,0.2815 -0.2405,0.2909 -0.2167,0.3002 -0.1912,0.3087 -0.1664,0.3171 -0.1405,0.3254 -0.1144,0.3323 -0.088,0.3395 -0.062,0.3457 -0.035,0.3517 -0.01,0.357 0.018,0.3612 0.044,0.3655 0.07,0.3689 0.095,0.3714 0.1193,0.3741 0.1437,0.3754 0.167,0.3767 0.1898,0.3776 0.211,0.3776 0.2324,0.3778 0.252,0.3769 0.2716,0.3764 0.2894,0.3752 0.3067,0.3734 0.3233,0.372 0.339,0.3705 0.3529,0.3683 0.3671,0.3663 0.3799,0.3644 0.3918,0.3618 0.4033,0.3599 0.4137,0.3574 0.4235,0.3554 0.4324,0.3531 0.441,0.3507 0.4489,0.3488 0.4564,0.3466 0.4626,0.3445 0.4692,0.3426 0.475,0.341 0.4799,0.3386 0.4852,0.3376 0.4896,0.3352 0.4935,0.3338 0.4974,0.3328 0.5011,0.3308 0.504,0.3298 0.5072,0.3282 0.5099,0.3274 0.5125,0.326 0.5144,0.3251 0.5168,0.3241 0.5187,0.323 0.52,0.3223 0.522,0.3213 0.5237,0.3207 0.5245,0.32 0.526,0.3191 0.5271,0.3186 0.5282,0.3184 0.529,0.3176 0.5299,0.317 0.5306,0.3165 0.5313,0.3161 0.5323,0.3159 0.5327,0.3153 0.5332,0.3151 0.5335,0.3146 0.5344,0.3146 0.5345,0.3144 0.5348,0.314 0.5354,0.3136 0.5354,0.3136 0.5362,0.3132 0.5357,0.313 0.5367,0.3131 0.5363,0.3129 0.5368,0.3128 0.537,0.3124 0.5372,0.3122 0.5373,0.3127 0.5377,0.312 0.5371,0.3122 0.5377,0.3121 0.5378,0.3117 0.5381,0.3123 0.5378,0.3117 0.5379,0.3118 0.5383,0.3116 0.5381,0.3114 0.5382,0.312 0.5383,0.3116 0.5383,0.3112 0.5383,0.3116 0.5386,0.3114 0.5383,0.3116 0.5386,0.3113 0.053,0.03" />
      <path
         id="path610096"
         style="display:inline;fill:none;stroke:#000000;stroke-width:0.264583;stroke-miterlimit:4;stroke-dasharray:none;stroke-opacity:1"
         inkscape:transform-center-x="-39.226205"
         inkscape:transform-center-y="-61.510345"
         d="m 1943.1201,1037.6686 -0.5348,-0.1218 -0.5269,-0.1286 -0.5182,-0.1359 -0.5085,-0.1432 -0.4986,-0.1511 -0.4877,-0.1589 -0.4757,-0.1675 -0.4633,-0.1762 -0.45,-0.1853 -0.4353,-0.1943 -0.4205,-0.2037 -0.4039,-0.2136 -0.3868,-0.2229 -0.3687,-0.2333 -0.3495,-0.2429 -0.3296,-0.2526 -0.3087,-0.263 -0.2867,-0.2722 -0.2645,-0.2819 -0.2409,-0.2914 -0.2168,-0.3004 -0.1919,-0.3091 -0.1668,-0.3175 -0.1413,-0.3252 -0.1148,-0.3327 -0.089,-0.3396 -0.062,-0.3462 -0.035,-0.3516 -0.01,-0.3567 0.017,-0.3614 0.043,-0.3652 0.069,-0.3687 0.094,-0.3717 0.1192,-0.3735 0.1428,-0.3754 0.1665,-0.3765 0.189,-0.3772 0.2106,-0.3774 0.2317,-0.3771 0.2515,-0.377 0.2709,-0.3756 0.2888,-0.3746 0.3064,-0.3731 0.3228,-0.3717 0.3379,-0.3699 0.3529,-0.3677 0.3662,-0.3658 0.3793,-0.3635 0.3913,-0.3615 0.4028,-0.359 0.4128,-0.3568 0.4229,-0.3546 0.4324,-0.3525 0.44,-0.35 0.4483,-0.3481 0.4557,-0.3459 0.4625,-0.3436 0.4687,-0.3421 0.474,-0.3402 0.48,-0.338 0.4843,-0.3362 0.489,-0.3349 0.493,-0.3333 0.4969,-0.3315 0.5006,-0.3301 0.5035,-0.3289 0.5066,-0.3279 0.5096,-0.3262 0.5118,-0.3253 0.5139,-0.3242 0.516,-0.3232 0.5181,-0.3221 0.5199,-0.3215 0.5213,-0.3206 0.523,-0.3197 0.5242,-0.3194 0.5253,-0.3183 0.5269,-0.3178 0.5274,-0.3172 0.5285,-0.3168 0.5296,-0.3163 0.5301,-0.3156 0.5309,-0.3155 0.5315,-0.3148 0.5323,-0.3147 0.5328,-0.314 0.5331,-0.3138 0.5336,-0.314 0.5341,-0.3132 0.5345,-0.313 0.5345,-0.3131 0.5351,-0.3126 0.5355,-0.3125 0.5359,-0.3123 0.5356,-0.3119 0.5362,-0.3121 0.5361,-0.312 0.5367,-0.3114 0.5365,-0.3119 0.5367,-0.3113 0.537,-0.3112 0.5372,-0.3115 0.537,-0.3112 0.5373,-0.3109 0.5373,-0.311 0.5374,-0.311 0.5378,-0.3111 0.5374,-0.311 0.5377,-0.3108 0.5376,-0.3108 0.5379,-0.3102 0.5376,-0.3108 0.538,-0.3106 0.5381,-0.3106 0.538,-0.3106 0.538,-0.3106 0.1101,-0.063" />
      <polyline
         stroke-width="1.90155"
         points="74.88,384.48 75.2437,384.248 75.6073,384.016 75.971,383.784 76.3347,383.553 76.6983,383.321 77.062,383.089 77.4256,382.857 77.7893,382.625 78.153,382.393 78.5166,382.162 78.8803,381.93 79.244,381.698 79.6076,381.466 79.9713,381.234 80.3349,381.002 80.6986,380.771 81.0623,380.539 81.4259,380.307 81.7896,380.075 82.1533,379.843 82.5169,379.611 82.8806,379.38 83.2442,379.148 83.6079,378.916 83.9716,378.684 84.3352,378.452 84.6989,378.22 85.0626,377.989 85.4262,377.757 85.7899,377.525 86.1535,377.293 86.5172,377.061 86.8809,376.829 87.2445,376.598 87.6082,376.366 87.9719,376.134 88.3355,375.902 88.6992,375.67 89.0628,375.438 89.4265,375.207 89.7902,374.975 90.1538,374.743 90.5175,374.511 90.8811,374.279 91.2448,374.047 91.6085,373.815 91.9722,373.584 92.3358,373.352 92.6995,373.12 93.0631,372.888 93.4268,372.656 93.7905,372.424 94.1541,372.193 94.5178,371.961 94.8814,371.729 95.2451,371.497 95.6088,371.265 95.9724,371.033 96.3361,370.802 96.6998,370.57 97.0634,370.338 97.4271,370.106 97.7907,369.874 98.1544,369.642 98.5181,369.411 98.8817,369.179 99.2454,368.947 99.6091,368.715 99.9727,368.483 100.336,368.251 100.7,368.02 101.064,367.788 101.427,367.556 101.791,367.324 102.155,367.092 102.518,366.86 102.882,366.629 103.246,366.397 103.609,366.165 103.973,365.933 104.337,365.701 104.7,365.469 105.064,365.237 105.428,365.006 105.791,364.774 106.155,364.542 106.519,364.31 106.882,364.078 107.246,363.846 107.61,363.615 107.973,363.383 108.337,363.151 108.701,362.919 109.064,362.687 109.428,362.455 109.792,362.224 110.155,361.992 110.519,361.76 110.883,361.528 111.246,361.296 111.61,361.064 111.974,360.833 112.337,360.601 112.701,360.369 113.065,360.137 113.428,359.905 113.792,359.673 114.156,359.442 114.519,359.21 114.883,358.978 115.247,358.746 115.61,358.514 115.974,358.282 116.338,358.051 116.701,357.819 117.065,357.587 117.429,357.355 117.792,357.123 118.156,356.891 118.52,356.66 118.883,356.428 119.247,356.196 119.611,355.964 119.974,355.732 120.338,355.5 120.701,355.268 121.065,355.037 121.429,354.805 121.792,354.573 122.156,354.341 122.52,354.109 122.883,353.878 123.247,353.646 123.611,353.414 123.974,353.182 124.338,352.95 124.702,352.718 125.065,352.486 125.429,352.255 125.793,352.023 126.156,351.791 126.52,351.559 126.884,351.327 127.247,351.095 127.611,350.864 127.975,350.632 128.338,350.4 128.702,350.168 129.066,349.936 129.429,349.704 129.793,349.473 130.157,349.241 130.52,349.009 130.884,348.777 131.248,348.545 131.611,348.313 131.975,348.082 132.339,347.85 132.702,347.618 133.066,347.386 133.43,347.154 133.793,346.922 134.157,346.691 134.521,346.459 134.884,346.227 135.248,345.995 135.612,345.763 135.975,345.531 136.339,345.299 136.703,345.068 137.066,344.836 137.43,344.604 137.794,344.372 138.157,344.14 138.521,343.908 138.885,343.677 139.248,343.445 139.612,343.213 139.976,342.981 140.339,342.749 140.703,342.517 141.067,342.286 141.43,342.054 141.794,341.822 142.158,341.59 142.521,341.358 142.885,341.126 143.249,340.895 143.612,340.663 143.976,340.431 144.34,340.199 144.703,339.967 145.067,339.735 145.431,339.504 145.794,339.272 146.158,339.04 146.522,338.808 146.885,338.576 147.249,338.344 147.613,338.113"
         fill="none"
         stroke="#0071bc"
         stroke-linecap="butt"
         stroke-linejoin="round"
         id="polyline610252"
         transform="matrix(0.33796858,-0.19512626,0.17638889,0.30551451,1817.1027,934.8543)"
         style="display:inline"
         inkscape:transform-center-x="-14.192045"
         inkscape:transform-center-y="-8.1785819" />
      <path
         id="path610256"
         style="display:inline;fill:none;stroke:#000000;stroke-width:0.264583;stroke-linejoin:round;stroke-miterlimit:4;stroke-dasharray:none"
         inkscape:transform-center-x="-31.14971"
         inkscape:transform-center-y="-53.844033"
         d="m 1910.2279,1037.7075 0.01,-0.7686 7e-4,-0.6211 3e-4,-0.6215 7e-4,-0.6212 4e-4,-0.6214 6e-4,-0.6212 4e-4,-0.6214 6e-4,-0.6211 4e-4,-0.6215 4e-4,-0.6214 6e-4,-0.6212 4e-4,-0.6215 6e-4,-0.6211 4e-4,-0.6215 6e-4,-0.6211 5e-4,-0.6215 5e-4,-0.6211 4e-4,-0.6214 6e-4,-0.6212 4e-4,-0.6215 5e-4,-0.6214 6e-4,-0.6212 4e-4,-0.6215 6e-4,-0.621 4e-4,-0.6215 5e-4,-0.6212 5e-4,-0.6214 6e-4,-0.6212 4e-4,-0.6215 4e-4,-0.6214 6e-4,-0.6211 5e-4,-0.6216 7e-4,-0.6211 3e-4,-0.6214 5e-4,-0.6211 4e-4,-0.6214 6e-4,-0.6212 3e-4,-0.6214 9e-4,-0.6214 3e-4,-0.6213 4e-4,-0.6215 5e-4,-0.6211 4e-4,-0.6214 6e-4,-0.6212 4e-4,-0.6213 8e-4,-0.6213 4e-4,-0.6215 6e-4,-0.6211 3e-4,-0.6214 4e-4,-0.6215 6e-4,-0.6211 3e-4,-0.6214 8e-4,-0.6213 4e-4,-0.6215 6e-4,-0.6211 3e-4,-0.6214 6e-4,-0.6211 4e-4,-0.6214 4e-4,-0.6215 8e-4,-0.6212 4e-4,-0.62152 5e-4,-0.62106 4e-4,-0.62147 5e-4,-0.62113 4e-4,-0.62141 5e-4,-0.62113 7e-4,-0.62162 6e-4,-0.62115 3e-4,-0.62139 4e-4,-0.62147 6e-4,-0.62108 4e-4,-0.62138 5e-4,-0.62115 7e-4,-0.62162 6e-4,-0.62117 3e-4,-0.62137 5e-4,-0.62114 4e-4,-0.62137 4e-4,-0.62147 5e-4,-0.62116 7e-4,-0.62162 5e-4,-0.62107 4e-4,-0.62146 6e-4,-0.62109 4e-4,-0.62137 5e-4,-0.62117 4e-4,-0.62146 9e-4,-0.62131 3e-4,-0.62138 4e-4,-0.62146 5e-4,-0.62115 4e-4,-0.62137 5e-4,-0.62116 4e-4,-0.62146 9e-4,-0.6213 3e-4,-0.6214 7e-4,-0.62108 3e-4,-0.62147 4e-4,-0.62138 5e-4,-0.62116 3e-4,-0.62138 10e-4,-0.62137 3e-4,-0.6214 6e-4,-0.62113 3e-4,-0.62138 6e-4,-0.62116 3e-4,-0.62147 4e-4,-0.62138 8e-4,-0.6213 5e-4,-0.62142 5e-4,-0.62115 4e-4,-0.62137 5e-4,-0.62116 4e-4,-0.62146 5e-4,-0.62106 7e-4,-0.62162 10e-5,-0.13131" />
      <path
         id="path610258"
         style="display:inline;fill:none;stroke:#000000;stroke-width:0.264583;stroke-miterlimit:4;stroke-dasharray:none;stroke-opacity:1"
         inkscape:transform-center-x="-73.900335"
         inkscape:transform-center-y="-8.3011919"
         d="m 1926.6404,1009.2024 -0.1629,0.5234 -0.1527,0.52 -0.142,0.5158 -0.131,0.5115 -0.1192,0.5067 -0.1063,0.5013 -0.093,0.4952 -0.08,0.4888 -0.065,0.4815 -0.05,0.4737 -0.034,0.4652 -0.018,0.4558 -7e-4,0.446 0.017,0.4352 0.035,0.4237 0.054,0.4112 0.073,0.3982 0.092,0.3838 0.1118,0.3693 0.1317,0.3537 0.1517,0.3377 0.1717,0.3201 0.1914,0.3025 0.2115,0.2844 0.2306,0.2653 0.2501,0.2458 0.2685,0.2263 0.2871,0.2061 0.3051,0.1856 0.3219,0.1648 0.3386,0.1447 0.3542,0.1242 0.3693,0.1033 0.3835,0.084 0.3971,0.063 0.4096,0.044 0.4219,0.024 0.4325,0.01 0.4435,-0.012 0.4523,-0.03 0.4618,-0.047 0.4697,-0.063 0.4767,-0.079 0.4838,-0.094 0.4904,-0.1084 0.4954,-0.1214 0.5008,-0.1348 0.5055,-0.1468 0.5093,-0.1584 0.5133,-0.1693 0.5163,-0.1796 0.5195,-0.1891 0.522,-0.1979 0.5243,-0.2065 0.5265,-0.2144 0.5284,-0.2219 0.5296,-0.2284 0.5313,-0.2351 0.5328,-0.2408 0.5332,-0.2463 0.5349,-0.2514 0.5351,-0.2564 0.5359,-0.2605 0.5369,-0.2643 0.5371,-0.2686 0.5375,-0.2717 0.5379,-0.275 0.5385,-0.2779 0.5385,-0.2809 0.5388,-0.2829 0.539,-0.2855 0.5391,-0.2877 0.5392,-0.2893 0.5392,-0.2913 0.5396,-0.2932 0.5394,-0.2943 0.5393,-0.2959 0.5395,-0.2972 0.5398,-0.2983 0.5396,-0.2993 0.5394,-0.3004 0.5395,-0.3013 0.5394,-0.302 0.5397,-0.3031 0.5393,-0.3036 0.5396,-0.3042 0.5392,-0.3048 0.5396,-0.3054 0.5395,-0.3058 0.5394,-0.3061 0.5393,-0.3069 0.5393,-0.3069 0.5393,-0.3077 0.5389,-0.3075 0.5395,-0.3082 0.5391,-0.308 0.5393,-0.3085 0.5391,-0.3088 0.5389,-0.3091 0.5395,-0.309 0.5391,-0.3096 0.5389,-0.3092 0.5391,-0.3096 0.5389,-0.3099 0.5394,-0.3098 0.5389,-0.3099 0.5389,-0.3099 0.5391,-0.3105 0.5387,-0.3102 0.5393,-0.3101 0.5391,-0.3104 0.5385,-0.3105 0.5391,-0.3105 0.5389,-0.3107 0.5391,-0.3104 0.5389,-0.3107 0.053,-0.03" />
      <path
         id="path610260"
         style="display:inline;fill:none;stroke:#000000;stroke-width:0.264583;stroke-miterlimit:4;stroke-dasharray:none;stroke-opacity:1"
         inkscape:transform-center-x="-39.226205"
         inkscape:transform-center-y="-61.510345"
         d="m 1926.6404,1009.2024 -0.3729,0.4023 -0.3749,0.392 -0.3767,0.3809 -0.3783,0.3687 -0.3801,0.3563 -0.3816,0.3429 -0.3828,0.3282 -0.3843,0.3131 -0.3854,0.2971 -0.386,0.2798 -0.3866,0.2623 -0.3869,0.243 -0.3865,0.2235 -0.3863,0.2027 -0.3852,0.1813 -0.3836,0.1591 -0.3821,0.1358 -0.3791,0.1122 -0.3763,0.088 -0.3728,0.063 -0.3686,0.038 -0.3637,0.012 -0.3583,-0.014 -0.3522,-0.04 -0.3456,-0.067 -0.3384,-0.093 -0.3308,-0.1194 -0.3222,-0.1452 -0.3134,-0.1706 -0.3043,-0.1958 -0.2946,-0.2201 -0.2848,-0.2442 -0.2747,-0.2674 -0.2639,-0.2901 -0.2537,-0.3113 -0.2428,-0.3324 -0.2322,-0.3523 -0.2215,-0.3711 -0.2107,-0.3892 -0.2008,-0.4063 -0.1898,-0.4224 -0.18,-0.4375 -0.1699,-0.4518 -0.1605,-0.4654 -0.1514,-0.4776 -0.142,-0.4895 -0.1337,-0.5001 -0.1252,-0.5102 -0.1174,-0.5196 -0.1095,-0.5283 -0.1026,-0.5359 -0.096,-0.5436 -0.089,-0.5506 -0.083,-0.5561 -0.077,-0.5624 -0.072,-0.5675 -0.066,-0.5724 -0.062,-0.5769 -0.058,-0.5806 -0.053,-0.58467 -0.049,-0.58761 -0.046,-0.59085 -0.042,-0.59361 -0.039,-0.59608 -0.036,-0.59862 -0.033,-0.6005 -0.031,-0.60267 -0.028,-0.60443 -0.026,-0.60589 -0.024,-0.60708 -0.022,-0.60854 -0.02,-0.60972 -0.018,-0.611 -0.017,-0.61179 -0.015,-0.61274 -0.014,-0.61363 -0.013,-0.61413 -0.012,-0.61523 -0.011,-0.61528 -0.01,-0.61617 -0.01,-0.61677 -0.01,-0.61687 -0.01,-0.61753 -0.01,-0.61764 -0.01,-0.61833 -0.01,-0.61842 -0.01,-0.6186 -0.01,-0.61911 v -0.6192 -0.61939 -0.61938 -0.61977 -0.61998 -0.62018 -0.61986 -0.62038 -0.62035 -0.62045 -0.62057 -0.62044 l -10e-4,-0.62064 v -0.62096 l -10e-4,-0.62064 -6e-4,-0.62084 -7e-4,-0.62085 -6e-4,-0.62083 -5e-4,-0.62134 -6e-4,-0.62083 -4e-4,-0.62105 -3e-4,-0.62104 2e-4,-0.62091 -3e-4,-0.62104 10e-5,-0.62122 v -0.62124 -0.62123 l 10e-5,-0.62123 v -0.12714" />
      <polyline
         stroke-width="1.90155"
         points="74.88,384.48 75.2437,384.248 75.6073,384.016 75.971,383.784 76.3347,383.553 76.6983,383.321 77.062,383.089 77.4256,382.857 77.7893,382.625 78.153,382.393 78.5166,382.162 78.8803,381.93 79.244,381.698 79.6076,381.466 79.9713,381.234 80.3349,381.002 80.6986,380.771 81.0623,380.539 81.4259,380.307 81.7896,380.075 82.1533,379.843 82.5169,379.611 82.8806,379.38 83.2442,379.148 83.6079,378.916 83.9716,378.684 84.3352,378.452 84.6989,378.22 85.0626,377.989 85.4262,377.757 85.7899,377.525 86.1535,377.293 86.5172,377.061 86.8809,376.829 87.2445,376.598 87.6082,376.366 87.9719,376.134 88.3355,375.902 88.6992,375.67 89.0628,375.438 89.4265,375.207 89.7902,374.975 90.1538,374.743 90.5175,374.511 90.8811,374.279 91.2448,374.047 91.6085,373.815 91.9722,373.584 92.3358,373.352 92.6995,373.12 93.0631,372.888 93.4268,372.656 93.7905,372.424 94.1541,372.193 94.5178,371.961 94.8814,371.729 95.2451,371.497 95.6088,371.265 95.9724,371.033 96.3361,370.802 96.6998,370.57 97.0634,370.338 97.4271,370.106 97.7907,369.874 98.1544,369.642 98.5181,369.411 98.8817,369.179 99.2454,368.947 99.6091,368.715 99.9727,368.483 100.336,368.251 100.7,368.02 101.064,367.788 101.427,367.556 101.791,367.324 102.155,367.092 102.518,366.86 102.882,366.629 103.246,366.397 103.609,366.165 103.973,365.933 104.337,365.701 104.7,365.469 105.064,365.237 105.428,365.006 105.791,364.774 106.155,364.542 106.519,364.31 106.882,364.078 107.246,363.846 107.61,363.615 107.973,363.383 108.337,363.151 108.701,362.919 109.064,362.687 109.428,362.455 109.792,362.224 110.155,361.992 110.519,361.76 110.883,361.528 111.246,361.296 111.61,361.064 111.974,360.833 112.337,360.601 112.701,360.369 113.065,360.137 113.428,359.905 113.792,359.673 114.156,359.442 114.519,359.21 114.883,358.978 115.247,358.746 115.61,358.514 115.974,358.282 116.338,358.051 116.701,357.819 117.065,357.587 117.429,357.355 117.792,357.123 118.156,356.891 118.52,356.66 118.883,356.428 119.247,356.196 119.611,355.964 119.974,355.732 120.338,355.5 120.701,355.268 121.065,355.037 121.429,354.805 121.792,354.573 122.156,354.341 122.52,354.109 122.883,353.878 123.247,353.646 123.611,353.414 123.974,353.182 124.338,352.95 124.702,352.718 125.065,352.486 125.429,352.255 125.793,352.023 126.156,351.791 126.52,351.559 126.884,351.327 127.247,351.095 127.611,350.864 127.975,350.632 128.338,350.4 128.702,350.168 129.066,349.936 129.429,349.704 129.793,349.473 130.157,349.241 130.52,349.009 130.884,348.777 131.248,348.545 131.611,348.313 131.975,348.082 132.339,347.85 132.702,347.618 133.066,347.386 133.43,347.154 133.793,346.922 134.157,346.691 134.521,346.459 134.884,346.227 135.248,345.995 135.612,345.763 135.975,345.531 136.339,345.299 136.703,345.068 137.066,344.836 137.43,344.604 137.794,344.372 138.157,344.14 138.521,343.908 138.885,343.677 139.248,343.445 139.612,343.213 139.976,342.981 140.339,342.749 140.703,342.517 141.067,342.286 141.43,342.054 141.794,341.822 142.158,341.59 142.521,341.358 142.885,341.126 143.249,340.895 143.612,340.663 143.976,340.431 144.34,340.199 144.703,339.967 145.067,339.735 145.431,339.504 145.794,339.272 146.158,339.04 146.522,338.808 146.885,338.576 147.249,338.344 147.613,338.113"
         fill="none"
         stroke="#0071bc"
         stroke-linecap="butt"
         stroke-linejoin="round"
         id="polyline610264"
         transform="matrix(0,-0.39025251,0.35277777,0,1774.5918,1066.9295)"
         style="display:inline"
         inkscape:transform-center-x="-14.192045"
         inkscape:transform-center-y="-8.1785819" />
      <path
         id="path610268"
         style="display:inline;fill:none;stroke:#000000;stroke-width:0.264583;stroke-linejoin:round;stroke-miterlimit:4;stroke-dasharray:none"
         inkscape:transform-center-x="-31.14971"
         inkscape:transform-center-y="-53.844033"
         d="m 1910.2279,1037.7073 -0.6607,-0.393 -0.5375,-0.3111 -0.538,-0.3111 -0.5376,-0.3112 -0.538,-0.311 -0.5377,-0.3111 -0.5379,-0.3111 -0.5377,-0.311 -0.538,-0.3111 -0.5379,-0.3111 -0.5377,-0.3111 -0.538,-0.311 -0.5376,-0.3112 -0.538,-0.3111 -0.5377,-0.311 -0.5379,-0.3112 -0.5377,-0.311 -0.5379,-0.3111 -0.5377,-0.3111 -0.538,-0.3111 -0.5379,-0.3111 -0.5377,-0.3111 -0.538,-0.311 -0.5376,-0.3111 -0.538,-0.3111 -0.5377,-0.3111 -0.5379,-0.3111 -0.5377,-0.3111 -0.538,-0.3111 -0.5379,-0.3111 -0.5377,-0.311 -0.538,-0.3112 -0.5375,-0.3111 -0.538,-0.3111 -0.5376,-0.311 -0.5381,-0.311 -0.5376,-0.3111 -0.538,-0.311 -0.5377,-0.3114 -0.5379,-0.311 -0.538,-0.3111 -0.5376,-0.311 -0.5381,-0.311 -0.5376,-0.3111 -0.5379,-0.311 -0.5376,-0.3114 -0.538,-0.3111 -0.5377,-0.311 -0.5379,-0.311 -0.5381,-0.3111 -0.5376,-0.311 -0.538,-0.311 -0.5376,-0.3114 -0.538,-0.311 -0.5377,-0.3111 -0.5379,-0.311 -0.5377,-0.311 -0.5379,-0.3111 -0.538,-0.311 -0.5376,-0.3114 -0.538,-0.3111 -0.5376,-0.311 -0.5381,-0.311 -0.5376,-0.3111 -0.538,-0.311 -0.5376,-0.311 -0.538,-0.3114 -0.5377,-0.3111 -0.5379,-0.311 -0.5381,-0.311 -0.5375,-0.3111 -0.538,-0.311 -0.5376,-0.3111 -0.538,-0.3114 -0.5377,-0.311 -0.5379,-0.311 -0.5377,-0.311 -0.538,-0.311 -0.538,-0.3111 -0.5376,-0.311 -0.538,-0.3115 -0.5376,-0.3109 -0.538,-0.3111 -0.5376,-0.3111 -0.538,-0.311 -0.5376,-0.311 -0.538,-0.3111 -0.5377,-0.3114 -0.538,-0.311 -0.538,-0.3111 -0.5376,-0.311 -0.538,-0.311 -0.5376,-0.311 -0.538,-0.3111 -0.5377,-0.3114 -0.5379,-0.311 -0.5376,-0.3111 -0.538,-0.311 -0.538,-0.311 -0.5376,-0.3111 -0.538,-0.3109 -0.5377,-0.3115 -0.538,-0.311 -0.5376,-0.3111 -0.538,-0.3109 -0.5376,-0.3111 -0.538,-0.3111 -0.538,-0.3109 -0.5376,-0.3115 -0.538,-0.3111 -0.5376,-0.311 -0.538,-0.311 -0.5377,-0.311 -0.538,-0.3111 -0.5376,-0.3109 -0.5379,-0.3115 -0.1137,-0.066" />
      <path
         id="path610270"
         style="display:inline;fill:none;stroke:#000000;stroke-width:0.264583;stroke-miterlimit:4;stroke-dasharray:none;stroke-opacity:1"
         inkscape:transform-center-x="-73.900335"
         inkscape:transform-center-y="-8.3011919"
         d="m 1893.748,1009.2411 0.3719,0.4028 0.3739,0.3922 0.3757,0.3808 0.3775,0.3692 0.3792,0.3567 0.381,0.3427 0.3821,0.3286 0.3835,0.3133 0.3845,0.297 0.3852,0.2802 0.386,0.2619 0.3859,0.2431 0.3859,0.2236 0.3856,0.2026 0.3846,0.1814 0.3831,0.1589 0.3813,0.1358 0.3785,0.112 0.3758,0.088 0.3721,0.063 0.3683,0.038 0.363,0.011 0.3578,-0.014 0.352,-0.041 0.3451,-0.067 0.3379,-0.094 0.3302,-0.1194 0.3221,-0.1456 0.3132,-0.1714 0.3037,-0.1964 0.2946,-0.2209 0.2847,-0.2446 0.2741,-0.2682 0.2642,-0.2903 0.2533,-0.3122 0.2427,-0.3329 0.2321,-0.3532 0.2216,-0.3715 0.2109,-0.3902 0.2004,-0.4067 0.1902,-0.4234 0.1802,-0.4382 0.1701,-0.4524 0.1605,-0.4659 0.1513,-0.4789 0.1426,-0.4897 0.1337,-0.5011 0.1255,-0.5112 0.1175,-0.5203 0.1101,-0.5291 0.1026,-0.537 0.096,-0.5444 0.09,-0.5511 0.083,-0.5572 0.078,-0.5632 0.072,-0.5686 0.067,-0.5729 0.062,-0.5775 0.058,-0.5819 0.053,-0.58499 0.05,-0.58889 0.046,-0.59163 0.042,-0.59434 0.039,-0.59709 0.036,-0.59944 0.034,-0.60136 0.031,-0.60333 0.029,-0.60529 0.026,-0.60685 0.024,-0.60801 0.022,-0.60959 0.02,-0.61073 0.019,-0.61153 0.017,-0.6127 0.016,-0.61387 0.015,-0.61424 0.013,-0.61503 0.012,-0.61584 0.012,-0.61659 0.011,-0.61698 0.01,-0.61739 0.01,-0.61777 0.01,-0.61817 0.01,-0.61894 0.01,-0.61892 0.01,-0.61934 0.01,-0.61933 0.01,-0.62011 v -0.62011 -0.62012 -0.62051 -0.62049 -0.62089 -0.6205 -0.62127 -0.62091 -0.62129 -0.62129 -0.62127 -0.62166 -0.62169 -0.62126 -0.62169 l 10e-4,-0.62166 v -0.62207 -0.62167 -0.62167 l 7e-4,-0.62206 7e-4,-0.62167 v -0.62207 l 7e-4,-0.62205 4e-4,-0.62169 7e-4,-0.62207 4e-4,-0.62205 6e-4,-0.62206 4e-4,-0.62205 v -0.0609" />
      <path
         id="path610272"
         style="display:inline;fill:none;stroke:#000000;stroke-width:0.264583;stroke-miterlimit:4;stroke-dasharray:none;stroke-opacity:1"
         inkscape:transform-center-x="-39.226205"
         inkscape:transform-center-y="-61.510345"
         d="m 1893.748,1009.2411 0.162,0.5241 0.152,0.5206 0.1415,0.5167 0.1302,0.512 0.1185,0.5074 0.1062,0.5018 0.093,0.4957 0.079,0.4893 0.064,0.4824 0.049,0.4741 0.034,0.466 0.017,0.4566 4e-4,0.4464 -0.018,0.436 -0.036,0.4242 -0.054,0.4117 -0.073,0.3988 -0.092,0.3844 -0.1118,0.37 -0.132,0.3543 -0.1517,0.338 -0.1717,0.3208 -0.1916,0.3032 -0.211,0.2849 -0.2307,0.2657 -0.2497,0.2467 -0.2689,0.2267 -0.2868,0.2064 -0.3044,0.1862 -0.3217,0.1656 -0.338,0.1451 -0.3538,0.1245 -0.369,0.1042 -0.3831,0.084 -0.3965,0.064 -0.4093,0.044 -0.4212,0.025 -0.4321,0.01 -0.4424,-0.012 -0.4523,-0.029 -0.4607,-0.047 -0.4689,-0.063 -0.4762,-0.079 -0.4833,-0.094 -0.4893,-0.1077 -0.495,-0.1217 -0.4998,-0.1343 -0.5045,-0.1467 -0.5087,-0.1581 -0.5123,-0.1693 -0.5154,-0.1791 -0.5185,-0.189 -0.5215,-0.1982 -0.5231,-0.206 -0.5257,-0.2143 -0.5274,-0.2216 -0.5288,-0.2287 -0.5306,-0.235 -0.5316,-0.2404 -0.5327,-0.2466 -0.5334,-0.2513 -0.5344,-0.256 -0.5352,-0.2603 -0.5355,-0.2646 -0.5362,-0.2685 -0.5366,-0.2716 -0.5373,-0.2748 -0.5373,-0.2782 -0.5376,-0.2806 -0.5377,-0.283 -0.5379,-0.2852 -0.538,-0.2876 -0.5384,-0.2896 -0.5383,-0.2911 -0.5383,-0.2931 -0.5387,-0.2943 -0.5384,-0.2958 -0.5387,-0.2974 -0.5383,-0.2981 -0.5387,-0.2993 -0.5387,-0.3005 -0.5383,-0.3013 -0.5387,-0.302 -0.5384,-0.3029 -0.5386,-0.3036 -0.5384,-0.3044 -0.5383,-0.3048 -0.5387,-0.3052 -0.5384,-0.3059 -0.5383,-0.3064 -0.5383,-0.3063 -0.5384,-0.3071 -0.5383,-0.3076 -0.5383,-0.3079 -0.538,-0.3079 -0.5384,-0.3083 -0.5383,-0.3083 -0.538,-0.3091 -0.5383,-0.3087 -0.538,-0.309 -0.538,-0.3095 -0.5384,-0.3095 -0.5379,-0.3094 -0.538,-0.3099 -0.538,-0.3099 -0.538,-0.3098 -0.5383,-0.3103 -0.538,-0.3098 -0.538,-0.3103 -0.538,-0.3102 -0.5376,-0.3107 -0.538,-0.3102 -0.538,-0.3107 -0.538,-0.3106 -0.538,-0.3106 -0.5379,-0.3107 -0.1101,-0.064" />
      <polyline
         stroke-width="1.90155"
         points="74.88,384.48 75.2437,384.248 75.6073,384.016 75.971,383.784 76.3347,383.553 76.6983,383.321 77.062,383.089 77.4256,382.857 77.7893,382.625 78.153,382.393 78.5166,382.162 78.8803,381.93 79.244,381.698 79.6076,381.466 79.9713,381.234 80.3349,381.002 80.6986,380.771 81.0623,380.539 81.4259,380.307 81.7896,380.075 82.1533,379.843 82.5169,379.611 82.8806,379.38 83.2442,379.148 83.6079,378.916 83.9716,378.684 84.3352,378.452 84.6989,378.22 85.0626,377.989 85.4262,377.757 85.7899,377.525 86.1535,377.293 86.5172,377.061 86.8809,376.829 87.2445,376.598 87.6082,376.366 87.9719,376.134 88.3355,375.902 88.6992,375.67 89.0628,375.438 89.4265,375.207 89.7902,374.975 90.1538,374.743 90.5175,374.511 90.8811,374.279 91.2448,374.047 91.6085,373.815 91.9722,373.584 92.3358,373.352 92.6995,373.12 93.0631,372.888 93.4268,372.656 93.7905,372.424 94.1541,372.193 94.5178,371.961 94.8814,371.729 95.2451,371.497 95.6088,371.265 95.9724,371.033 96.3361,370.802 96.6998,370.57 97.0634,370.338 97.4271,370.106 97.7907,369.874 98.1544,369.642 98.5181,369.411 98.8817,369.179 99.2454,368.947 99.6091,368.715 99.9727,368.483 100.336,368.251 100.7,368.02 101.064,367.788 101.427,367.556 101.791,367.324 102.155,367.092 102.518,366.86 102.882,366.629 103.246,366.397 103.609,366.165 103.973,365.933 104.337,365.701 104.7,365.469 105.064,365.237 105.428,365.006 105.791,364.774 106.155,364.542 106.519,364.31 106.882,364.078 107.246,363.846 107.61,363.615 107.973,363.383 108.337,363.151 108.701,362.919 109.064,362.687 109.428,362.455 109.792,362.224 110.155,361.992 110.519,361.76 110.883,361.528 111.246,361.296 111.61,361.064 111.974,360.833 112.337,360.601 112.701,360.369 113.065,360.137 113.428,359.905 113.792,359.673 114.156,359.442 114.519,359.21 114.883,358.978 115.247,358.746 115.61,358.514 115.974,358.282 116.338,358.051 116.701,357.819 117.065,357.587 117.429,357.355 117.792,357.123 118.156,356.891 118.52,356.66 118.883,356.428 119.247,356.196 119.611,355.964 119.974,355.732 120.338,355.5 120.701,355.268 121.065,355.037 121.429,354.805 121.792,354.573 122.156,354.341 122.52,354.109 122.883,353.878 123.247,353.646 123.611,353.414 123.974,353.182 124.338,352.95 124.702,352.718 125.065,352.486 125.429,352.255 125.793,352.023 126.156,351.791 126.52,351.559 126.884,351.327 127.247,351.095 127.611,350.864 127.975,350.632 128.338,350.4 128.702,350.168 129.066,349.936 129.429,349.704 129.793,349.473 130.157,349.241 130.52,349.009 130.884,348.777 131.248,348.545 131.611,348.313 131.975,348.082 132.339,347.85 132.702,347.618 133.066,347.386 133.43,347.154 133.793,346.922 134.157,346.691 134.521,346.459 134.884,346.227 135.248,345.995 135.612,345.763 135.975,345.531 136.339,345.299 136.703,345.068 137.066,344.836 137.43,344.604 137.794,344.372 138.157,344.14 138.521,343.908 138.885,343.677 139.248,343.445 139.612,343.213 139.976,342.981 140.339,342.749 140.703,342.517 141.067,342.286 141.43,342.054 141.794,341.822 142.158,341.59 142.521,341.358 142.885,341.126 143.249,340.895 143.612,340.663 143.976,340.431 144.34,340.199 144.703,339.967 145.067,339.735 145.431,339.504 145.794,339.272 146.158,339.04 146.522,338.808 146.885,338.576 147.249,338.344 147.613,338.113"
         fill="none"
         stroke="#0071bc"
         stroke-linecap="butt"
         stroke-linejoin="round"
         id="polyline610276"
         transform="matrix(-0.33796859,-0.19512625,0.17638888,-0.30551451,1867.7167,1169.7827)"
         style="display:inline"
         inkscape:transform-center-x="-14.192045"
         inkscape:transform-center-y="-8.1785819" />
      <path
         id="path610280"
         style="display:inline;fill:none;stroke:#000000;stroke-width:0.264583;stroke-linejoin:round;stroke-miterlimit:4;stroke-dasharray:none"
         inkscape:transform-center-x="-31.14971"
         inkscape:transform-center-y="-53.844033"
         d="m 1910.2276,1037.7074 -0.6707,0.3756 -0.5382,0.31 -0.5384,0.3104 -0.5383,0.31 -0.5383,0.3104 -0.5383,0.3101 -0.5384,0.3103 -0.5382,0.3101 -0.5384,0.3104 -0.5384,0.3103 -0.5382,0.3101 -0.5384,0.3104 -0.5383,0.31 -0.5384,0.3104 -0.5382,0.3101 -0.5384,0.3103 -0.5382,0.3101 -0.5384,0.3103 -0.5382,0.3101 -0.5385,0.3104 -0.5384,0.3103 -0.5382,0.3101 -0.5384,0.3104 -0.5382,0.31 -0.5384,0.3104 -0.5382,0.3101 -0.5384,0.3103 -0.5383,0.3101 -0.5384,0.3104 -0.5384,0.3103 -0.5382,0.3101 -0.5385,0.3103 -0.5382,0.31 -0.5384,0.3104 -0.5381,0.3101 -0.5384,0.3104 -0.5382,0.3101 -0.5383,0.3104 -0.5386,0.3099 -0.5383,0.3104 -0.5384,0.3104 -0.5381,0.3101 -0.5384,0.3104 -0.5382,0.3101 -0.5383,0.3103 -0.5385,0.3099 -0.5384,0.3104 -0.5382,0.3101 -0.5383,0.3104 -0.5384,0.3104 -0.5382,0.3101 -0.5383,0.3104 -0.5385,0.3099 -0.5384,0.3104 -0.5382,0.3101 -0.5383,0.3104 -0.5382,0.3101 -0.5383,0.3103 -0.5384,0.3104 -0.5385,0.3099 -0.5384,0.3104 -0.5381,0.3101 -0.5384,0.3104 -0.5382,0.3101 -0.5383,0.3104 -0.5382,0.3101 -0.5387,0.3102 -0.5382,0.3101 -0.5383,0.3104 -0.5384,0.3104 -0.5382,0.31 -0.5383,0.3104 -0.5382,0.3101 -0.5387,0.3102 -0.5382,0.3101 -0.5383,0.3104 -0.5382,0.3101 -0.5383,0.3104 -0.5384,0.3104 -0.5382,0.3101 -0.5387,0.3102 -0.5381,0.3101 -0.5384,0.3104 -0.5382,0.31 -0.5383,0.3104 -0.5382,0.3101 -0.5384,0.3104 -0.5385,0.3099 -0.5383,0.3104 -0.5384,0.3104 -0.5382,0.3101 -0.5383,0.3104 -0.5382,0.3101 -0.5384,0.3104 -0.5385,0.3099 -0.5383,0.3104 -0.5382,0.31 -0.5384,0.3104 -0.5383,0.3104 -0.5382,0.3101 -0.5383,0.3104 -0.5386,0.3099 -0.5383,0.3104 -0.5382,0.3101 -0.5383,0.3104 -0.5382,0.3101 -0.5384,0.3104 -0.5383,0.3104 -0.5385,0.3099 -0.5384,0.3103 -0.5382,0.3101 -0.5383,0.3104 -0.5382,0.3101 -0.5384,0.3104 -0.5381,0.3101 -0.5387,0.3102 -0.1137,0.066" />
      <path
         id="path610282"
         style="display:inline;fill:none;stroke:#000000;stroke-width:0.264583;stroke-miterlimit:4;stroke-dasharray:none;stroke-opacity:1"
         inkscape:transform-center-x="-73.900335"
         inkscape:transform-center-y="-8.3011919"
         d="m 1877.3352,1037.7463 0.5347,-0.1207 0.5267,-0.1277 0.5177,-0.1349 0.5084,-0.1423 0.4986,-0.1501 0.4872,-0.1586 0.4756,-0.1666 0.4631,-0.1754 0.4495,-0.1846 0.4352,-0.1935 0.4198,-0.2033 0.4035,-0.2127 0.3867,-0.2224 0.3682,-0.2326 0.3494,-0.2423 0.3291,-0.2524 0.3083,-0.2623 0.2862,-0.2719 0.2639,-0.2814 0.2405,-0.2909 0.2166,-0.3002 0.1913,-0.3088 0.1664,-0.317 0.1405,-0.3254 0.1144,-0.3323 0.088,-0.3396 0.062,-0.3456 0.035,-0.3517 0.01,-0.357 -0.018,-0.3612 -0.044,-0.3655 -0.07,-0.3689 -0.095,-0.3715 -0.1193,-0.374 -0.1438,-0.3754 -0.1669,-0.3767 -0.1898,-0.3776 -0.211,-0.3776 -0.2325,-0.3778 -0.2519,-0.3769 -0.2717,-0.3764 -0.2894,-0.3752 -0.3067,-0.3734 -0.3232,-0.372 -0.339,-0.3705 -0.3529,-0.3683 -0.3671,-0.3663 -0.38,-0.3644 -0.3918,-0.3619 -0.4032,-0.3599 -0.4137,-0.3574 -0.4235,-0.3553 -0.4324,-0.3531 -0.441,-0.3507 -0.4489,-0.3488 -0.4564,-0.3466 -0.4626,-0.3445 -0.4692,-0.3426 -0.475,-0.341 -0.48,-0.3387 -0.4851,-0.3375 -0.4896,-0.3352 -0.4935,-0.3338 -0.4974,-0.3328 -0.5011,-0.3309 -0.5041,-0.3297 -0.5071,-0.3282 -0.5099,-0.3274 -0.5125,-0.326 -0.5144,-0.3251 -0.5168,-0.3241 -0.5187,-0.3231 -0.5201,-0.3222 -0.5219,-0.3214 -0.5237,-0.3206 -0.5245,-0.32 -0.526,-0.3191 -0.5271,-0.3186 -0.5282,-0.3184 -0.529,-0.3176 -0.5299,-0.317 -0.5306,-0.3165 -0.5313,-0.3161 -0.5323,-0.3159 -0.5327,-0.3153 -0.5332,-0.3151 -0.5335,-0.3146 -0.5344,-0.3146 -0.5346,-0.3144 -0.5347,-0.314 -0.5354,-0.3136 -0.5355,-0.3136 -0.5361,-0.3132 -0.5358,-0.313 -0.5366,-0.3131 -0.5363,-0.3129 -0.5368,-0.3128 -0.537,-0.3125 -0.5372,-0.3121 -0.5373,-0.3127 -0.5377,-0.312 -0.5371,-0.3122 -0.5377,-0.3121 -0.5379,-0.3117 -0.538,-0.3123 -0.5378,-0.3117 -0.5379,-0.3118 -0.5384,-0.3116 -0.538,-0.3115 -0.5382,-0.3119 -0.5384,-0.3117 -0.5382,-0.3111 -0.5383,-0.3117 -0.5386,-0.3113 -0.5383,-0.3116 -0.5386,-0.3114 -0.053,-0.03" />
      <path
         id="path610284"
         style="display:inline;fill:none;stroke:#000000;stroke-width:0.264583;stroke-miterlimit:4;stroke-dasharray:none;stroke-opacity:1"
         inkscape:transform-center-x="-39.226205"
         inkscape:transform-center-y="-61.510345"
         d="m 1877.3352,1037.7463 0.5349,0.1218 0.5269,0.1286 0.5182,0.1359 0.5085,0.1432 0.4986,0.1511 0.4877,0.1589 0.4756,0.1675 0.4633,0.1762 0.4501,0.1853 0.4353,0.1943 0.4204,0.2037 0.4039,0.2136 0.3869,0.2229 0.3687,0.2332 0.3495,0.243 0.3296,0.2526 0.3087,0.263 0.2867,0.2722 0.2645,0.2818 0.2409,0.2915 0.2168,0.3003 0.1919,0.3092 0.1668,0.3175 0.1413,0.3251 0.1148,0.3327 0.089,0.3397 0.062,0.3461 0.035,0.3516 0.01,0.3568 -0.017,0.3613 -0.043,0.3653 -0.069,0.3687 -0.094,0.3717 -0.1192,0.3735 -0.1429,0.3754 -0.1664,0.3764 -0.189,0.3773 -0.2106,0.3774 -0.2317,0.3771 -0.2515,0.377 -0.2709,0.3756 -0.2888,0.3746 -0.3064,0.373 -0.3228,0.3717 -0.3379,0.3699 -0.3529,0.3678 -0.3663,0.3658 -0.3793,0.3635 -0.3912,0.3615 -0.4028,0.359 -0.4128,0.3568 -0.4229,0.3546 -0.4324,0.3525 -0.44,0.35 -0.4484,0.3481 -0.4556,0.3459 -0.4625,0.3436 -0.4688,0.342 -0.474,0.3403 -0.4799,0.338 -0.4844,0.3362 -0.4889,0.3349 -0.493,0.3333 -0.4969,0.3315 -0.5006,0.3301 -0.5035,0.3289 -0.5066,0.3279 -0.5096,0.3262 -0.5118,0.3253 -0.5139,0.3242 -0.516,0.3232 -0.5181,0.3221 -0.5199,0.3215 -0.5213,0.3206 -0.523,0.3197 -0.5242,0.3194 -0.5253,0.3183 -0.5269,0.3178 -0.5274,0.3172 -0.5286,0.3168 -0.5295,0.3163 -0.5301,0.3156 -0.531,0.3155 -0.5314,0.3148 -0.5323,0.3147 -0.5328,0.314 -0.5331,0.3138 -0.5336,0.3139 -0.5342,0.3133 -0.5345,0.313 -0.5344,0.3131 -0.5352,0.3126 -0.5354,0.3125 -0.5359,0.3122 -0.5356,0.312 -0.5362,0.3121 -0.5362,0.312 -0.5366,0.3114 -0.5365,0.3119 -0.5367,0.3113 -0.537,0.3112 -0.5372,0.3115 -0.537,0.3112 -0.5373,0.3109 -0.5374,0.311 -0.5373,0.311 -0.5378,0.3111 -0.5374,0.3109 -0.5377,0.3109 -0.5377,0.3107 -0.5378,0.3103 -0.5377,0.3108 -0.538,0.3106 -0.538,0.3106 -0.538,0.3106 -0.538,0.3105 -0.1101,0.064" />
      <polyline
         stroke-width="1.90155"
         points="74.88,384.48 75.2437,384.248 75.6073,384.016 75.971,383.784 76.3347,383.553 76.6983,383.321 77.062,383.089 77.4256,382.857 77.7893,382.625 78.153,382.393 78.5166,382.162 78.8803,381.93 79.244,381.698 79.6076,381.466 79.9713,381.234 80.3349,381.002 80.6986,380.771 81.0623,380.539 81.4259,380.307 81.7896,380.075 82.1533,379.843 82.5169,379.611 82.8806,379.38 83.2442,379.148 83.6079,378.916 83.9716,378.684 84.3352,378.452 84.6989,378.22 85.0626,377.989 85.4262,377.757 85.7899,377.525 86.1535,377.293 86.5172,377.061 86.8809,376.829 87.2445,376.598 87.6082,376.366 87.9719,376.134 88.3355,375.902 88.6992,375.67 89.0628,375.438 89.4265,375.207 89.7902,374.975 90.1538,374.743 90.5175,374.511 90.8811,374.279 91.2448,374.047 91.6085,373.815 91.9722,373.584 92.3358,373.352 92.6995,373.12 93.0631,372.888 93.4268,372.656 93.7905,372.424 94.1541,372.193 94.5178,371.961 94.8814,371.729 95.2451,371.497 95.6088,371.265 95.9724,371.033 96.3361,370.802 96.6998,370.57 97.0634,370.338 97.4271,370.106 97.7907,369.874 98.1544,369.642 98.5181,369.411 98.8817,369.179 99.2454,368.947 99.6091,368.715 99.9727,368.483 100.336,368.251 100.7,368.02 101.064,367.788 101.427,367.556 101.791,367.324 102.155,367.092 102.518,366.86 102.882,366.629 103.246,366.397 103.609,366.165 103.973,365.933 104.337,365.701 104.7,365.469 105.064,365.237 105.428,365.006 105.791,364.774 106.155,364.542 106.519,364.31 106.882,364.078 107.246,363.846 107.61,363.615 107.973,363.383 108.337,363.151 108.701,362.919 109.064,362.687 109.428,362.455 109.792,362.224 110.155,361.992 110.519,361.76 110.883,361.528 111.246,361.296 111.61,361.064 111.974,360.833 112.337,360.601 112.701,360.369 113.065,360.137 113.428,359.905 113.792,359.673 114.156,359.442 114.519,359.21 114.883,358.978 115.247,358.746 115.61,358.514 115.974,358.282 116.338,358.051 116.701,357.819 117.065,357.587 117.429,357.355 117.792,357.123 118.156,356.891 118.52,356.66 118.883,356.428 119.247,356.196 119.611,355.964 119.974,355.732 120.338,355.5 120.701,355.268 121.065,355.037 121.429,354.805 121.792,354.573 122.156,354.341 122.52,354.109 122.883,353.878 123.247,353.646 123.611,353.414 123.974,353.182 124.338,352.95 124.702,352.718 125.065,352.486 125.429,352.255 125.793,352.023 126.156,351.791 126.52,351.559 126.884,351.327 127.247,351.095 127.611,350.864 127.975,350.632 128.338,350.4 128.702,350.168 129.066,349.936 129.429,349.704 129.793,349.473 130.157,349.241 130.52,349.009 130.884,348.777 131.248,348.545 131.611,348.313 131.975,348.082 132.339,347.85 132.702,347.618 133.066,347.386 133.43,347.154 133.793,346.922 134.157,346.691 134.521,346.459 134.884,346.227 135.248,345.995 135.612,345.763 135.975,345.531 136.339,345.299 136.703,345.068 137.066,344.836 137.43,344.604 137.794,344.372 138.157,344.14 138.521,343.908 138.885,343.677 139.248,343.445 139.612,343.213 139.976,342.981 140.339,342.749 140.703,342.517 141.067,342.286 141.43,342.054 141.794,341.822 142.158,341.59 142.521,341.358 142.885,341.126 143.249,340.895 143.612,340.663 143.976,340.431 144.34,340.199 144.703,339.967 145.067,339.735 145.431,339.504 145.794,339.272 146.158,339.04 146.522,338.808 146.885,338.576 147.249,338.344 147.613,338.113"
         fill="none"
         stroke="#0071bc"
         stroke-linecap="butt"
         stroke-linejoin="round"
         id="polyline610288"
         transform="matrix(-0.33796858,0.19512626,-0.17638889,-0.30551451,2003.3526,1140.5608)"
         style="display:inline"
         inkscape:transform-center-x="-14.192045"
         inkscape:transform-center-y="-8.1785819" />
      <path
         id="path610292"
         style="display:inline;fill:none;stroke:#000000;stroke-width:0.264583;stroke-linejoin:round;stroke-miterlimit:4;stroke-dasharray:none"
         inkscape:transform-center-x="-31.14971"
         inkscape:transform-center-y="-53.844033"
         d="m 1910.2276,1037.7077 -0.01,0.7686 -6e-4,0.6211 -4e-4,0.6215 -7e-4,0.6211 -3e-4,0.6214 -6e-4,0.6213 -5e-4,0.6214 -5e-4,0.6211 -4e-4,0.6215 -5e-4,0.6214 -5e-4,0.6211 -4e-4,0.6215 -7e-4,0.6212 -4e-4,0.6215 -5e-4,0.6211 -5e-4,0.6214 -5e-4,0.6212 -5e-4,0.6214 -6e-4,0.6211 -4e-4,0.6216 -5e-4,0.6214 -5e-4,0.6212 -4e-4,0.6214 -6e-4,0.6211 -4e-4,0.6215 -6e-4,0.6211 -4e-4,0.6215 -6e-4,0.6212 -4e-4,0.6214 -5e-4,0.6215 -5e-4,0.6211 -5e-4,0.6215 -7e-4,0.6211 -4e-4,0.6215 -5e-4,0.621 -3e-4,0.6215 -6e-4,0.6212 -3e-4,0.6213 -9e-4,0.6214 -4e-4,0.6214 -4e-4,0.6215 -5e-4,0.621 -3e-4,0.6215 -6e-4,0.6211 -4e-4,0.6214 -9e-4,0.6213 -4e-4,0.6214 -5e-4,0.6212 -4e-4,0.6214 -3e-4,0.6214 -6e-4,0.6212 -3e-4,0.6214 -9e-4,0.6213 -4e-4,0.6214 -5e-4,0.6212 -4e-4,0.6214 -5e-4,0.6211 -4e-4,0.6214 -4e-4,0.6214 -9e-4,0.6213 -4e-4,0.6215 -5e-4,0.621 -3e-4,0.6215 -6e-4,0.6211 -3e-4,0.6214 -6e-4,0.6212 -7e-4,0.6216 -5e-4,0.6212 -4e-4,0.6213 -3e-4,0.6215 -7e-4,0.6211 -3e-4,0.6214 -6e-4,0.6211 -7e-4,0.6216 -5e-4,0.6212 -4e-4,0.6214 -5e-4,0.6211 -3e-4,0.6214 -4e-4,0.6215 -6e-4,0.6211 -7e-4,0.6216 -5e-4,0.6211 -4e-4,0.6215 -6e-4,0.6211 -3e-4,0.6213 -6e-4,0.6212 -4e-4,0.6215 -8e-4,0.6213 -4e-4,0.6214 -4e-4,0.6214 -5e-4,0.6212 -3e-4,0.6213 -6e-4,0.6212 -4e-4,0.6215 -8e-4,0.6212 -4e-4,0.6214 -6e-4,0.6211 -4e-4,0.6215 -3e-4,0.6214 -6e-4,0.6211 -3e-4,0.6214 -9e-4,0.6214 -4e-4,0.6214 -5e-4,0.6211 -3e-4,0.6214 -6e-4,0.6212 -4e-4,0.6214 -3e-4,0.6214 -9e-4,0.6213 -5e-4,0.6214 -5e-4,0.6212 -3e-4,0.6213 -6e-4,0.6212 -4e-4,0.6215 -4e-4,0.621 -7e-4,0.6216 -10e-5,0.1314" />
      <path
         id="path610294"
         style="display:inline;fill:none;stroke:#000000;stroke-width:0.264583;stroke-miterlimit:4;stroke-dasharray:none;stroke-opacity:1"
         inkscape:transform-center-x="-73.900335"
         inkscape:transform-center-y="-8.3011919"
         d="m 1893.8151,1066.2127 0.1628,-0.5234 0.1527,-0.5199 0.142,-0.5158 0.131,-0.5115 0.1193,-0.5068 0.1062,-0.5013 0.094,-0.4951 0.08,-0.4888 0.065,-0.4815 0.05,-0.4737 0.034,-0.4652 0.018,-0.4558 7e-4,-0.446 -0.017,-0.4352 -0.035,-0.4238 -0.054,-0.4112 -0.073,-0.3981 -0.092,-0.3839 -0.1119,-0.3692 -0.1316,-0.3538 -0.1517,-0.3377 -0.1717,-0.32 -0.1914,-0.3026 -0.2115,-0.2844 -0.2307,-0.2652 -0.2501,-0.2459 -0.2685,-0.2262 -0.2871,-0.2062 -0.305,-0.1856 -0.3219,-0.1647 -0.3386,-0.1447 -0.3543,-0.1242 -0.3692,-0.1033 -0.3836,-0.084 -0.397,-0.063 -0.4096,-0.044 -0.422,-0.024 -0.4325,-0.01 -0.4434,0.013 -0.4524,0.03 -0.4618,0.047 -0.4696,0.063 -0.4768,0.079 -0.4837,0.094 -0.4904,0.1083 -0.4954,0.1215 -0.5008,0.1347 -0.5055,0.1469 -0.5093,0.1584 -0.5133,0.1692 -0.5164,0.1796 -0.5194,0.1891 -0.522,0.1979 -0.5243,0.2066 -0.5265,0.2143 -0.5284,0.222 -0.5297,0.2284 -0.5312,0.235 -0.5328,0.2408 -0.5333,0.2464 -0.5348,0.2514 -0.5352,0.2564 -0.5358,0.2605 -0.5369,0.2643 -0.5371,0.2686 -0.5376,0.2716 -0.5378,0.2751 -0.5385,0.2779 -0.5386,0.2808 -0.5387,0.2829 -0.539,0.2856 -0.5392,0.2877 -0.5391,0.2892 -0.5393,0.2914 -0.5395,0.2932 -0.5394,0.2943 -0.5393,0.2959 -0.5395,0.2972 -0.5398,0.2982 -0.5396,0.2993 -0.5395,0.3005 -0.5394,0.3012 -0.5394,0.3021 -0.5397,0.303 -0.5394,0.3037 -0.5395,0.3042 -0.5392,0.3047 -0.5397,0.3055 -0.5395,0.3058 -0.5393,0.3061 -0.5393,0.3069 -0.5393,0.3068 -0.5393,0.3078 -0.539,0.3075 -0.5394,0.3081 -0.5392,0.3081 -0.5392,0.3085 -0.5392,0.3088 -0.5389,0.3091 -0.5394,0.309 -0.5391,0.3096 -0.5389,0.3091 -0.5391,0.3096 -0.5389,0.3099 -0.5395,0.3099 -0.5389,0.3099 -0.5389,0.3099 -0.539,0.3104 -0.5388,0.3102 -0.5392,0.3101 -0.5391,0.3105 -0.5386,0.3105 -0.5391,0.3104 -0.5389,0.3107 -0.539,0.3105 -0.5389,0.3107 -0.053,0.03" />
      <path
         id="path610296"
         style="display:inline;fill:none;stroke:#000000;stroke-width:0.264583;stroke-miterlimit:4;stroke-dasharray:none;stroke-opacity:1"
         inkscape:transform-center-x="-39.226205"
         inkscape:transform-center-y="-61.510345"
         d="m 1893.8151,1066.2127 0.3729,-0.4023 0.3748,-0.3919 0.3768,-0.3809 0.3783,-0.3687 0.3801,-0.3563 0.3815,-0.343 0.3829,-0.3281 0.3843,-0.3131 0.3854,-0.2971 0.3859,-0.2799 0.3866,-0.2623 0.387,-0.2429 0.3865,-0.2236 0.3863,-0.2026 0.3852,-0.1813 0.3835,-0.1591 0.3821,-0.1359 0.3791,-0.1121 0.3763,-0.088 0.3729,-0.063 0.3685,-0.038 0.3637,-0.012 0.3584,0.014 0.3522,0.04 0.3455,0.067 0.3385,0.093 0.3308,0.1195 0.3221,0.1452 0.3135,0.1705 0.3042,0.1958 0.2947,0.2201 0.2847,0.2442 0.2748,0.2675 0.2639,0.29 0.2537,0.3114 0.2428,0.3324 0.2322,0.3523 0.2215,0.3711 0.2107,0.3892 0.2008,0.4063 0.1898,0.4224 0.18,0.4374 0.1699,0.4519 0.1605,0.4654 0.1514,0.4776 0.142,0.4895 0.1337,0.5 0.1251,0.5103 0.1175,0.5196 0.1095,0.5282 0.1025,0.536 0.096,0.5435 0.089,0.5507 0.083,0.5561 0.077,0.5623 0.072,0.5676 0.066,0.5723 0.062,0.577 0.058,0.5806 0.053,0.5846 0.049,0.5876 0.045,0.5909 0.042,0.5936 0.039,0.5961 0.036,0.5986 0.033,0.6005 0.031,0.6027 0.028,0.6044 0.026,0.6059 0.024,0.6071 0.022,0.6085 0.02,0.6097 0.018,0.611 0.017,0.6118 0.015,0.6128 0.014,0.6136 0.013,0.6141 0.012,0.6152 0.011,0.6153 0.01,0.6162 0.01,0.6168 0.01,0.6168 0.01,0.6176 0.01,0.6176 0.01,0.6183 0.01,0.6185 0.01,0.6186 0.01,0.6191 v 0.6192 0.6194 0.6193 0.6198 0.62 0.6202 0.6198 0.6204 0.6204 0.6204 0.6206 0.6204 0.6207 0.6209 l 9e-4,0.6207 7e-4,0.6208 6e-4,0.6208 7e-4,0.6209 5e-4,0.6213 6e-4,0.6208 3e-4,0.6211 3e-4,0.621 -2e-4,0.6209 3e-4,0.6211 v 0.6212 0.6213 l -10e-5,0.6212 v 0.6212 0.1271" />
      <polyline
         stroke-width="1.90155"
         points="74.88,384.48 75.2437,384.248 75.6073,384.016 75.971,383.784 76.3347,383.553 76.6983,383.321 77.062,383.089 77.4256,382.857 77.7893,382.625 78.153,382.393 78.5166,382.162 78.8803,381.93 79.244,381.698 79.6076,381.466 79.9713,381.234 80.3349,381.002 80.6986,380.771 81.0623,380.539 81.4259,380.307 81.7896,380.075 82.1533,379.843 82.5169,379.611 82.8806,379.38 83.2442,379.148 83.6079,378.916 83.9716,378.684 84.3352,378.452 84.6989,378.22 85.0626,377.989 85.4262,377.757 85.7899,377.525 86.1535,377.293 86.5172,377.061 86.8809,376.829 87.2445,376.598 87.6082,376.366 87.9719,376.134 88.3355,375.902 88.6992,375.67 89.0628,375.438 89.4265,375.207 89.7902,374.975 90.1538,374.743 90.5175,374.511 90.8811,374.279 91.2448,374.047 91.6085,373.815 91.9722,373.584 92.3358,373.352 92.6995,373.12 93.0631,372.888 93.4268,372.656 93.7905,372.424 94.1541,372.193 94.5178,371.961 94.8814,371.729 95.2451,371.497 95.6088,371.265 95.9724,371.033 96.3361,370.802 96.6998,370.57 97.0634,370.338 97.4271,370.106 97.7907,369.874 98.1544,369.642 98.5181,369.411 98.8817,369.179 99.2454,368.947 99.6091,368.715 99.9727,368.483 100.336,368.251 100.7,368.02 101.064,367.788 101.427,367.556 101.791,367.324 102.155,367.092 102.518,366.86 102.882,366.629 103.246,366.397 103.609,366.165 103.973,365.933 104.337,365.701 104.7,365.469 105.064,365.237 105.428,365.006 105.791,364.774 106.155,364.542 106.519,364.31 106.882,364.078 107.246,363.846 107.61,363.615 107.973,363.383 108.337,363.151 108.701,362.919 109.064,362.687 109.428,362.455 109.792,362.224 110.155,361.992 110.519,361.76 110.883,361.528 111.246,361.296 111.61,361.064 111.974,360.833 112.337,360.601 112.701,360.369 113.065,360.137 113.428,359.905 113.792,359.673 114.156,359.442 114.519,359.21 114.883,358.978 115.247,358.746 115.61,358.514 115.974,358.282 116.338,358.051 116.701,357.819 117.065,357.587 117.429,357.355 117.792,357.123 118.156,356.891 118.52,356.66 118.883,356.428 119.247,356.196 119.611,355.964 119.974,355.732 120.338,355.5 120.701,355.268 121.065,355.037 121.429,354.805 121.792,354.573 122.156,354.341 122.52,354.109 122.883,353.878 123.247,353.646 123.611,353.414 123.974,353.182 124.338,352.95 124.702,352.718 125.065,352.486 125.429,352.255 125.793,352.023 126.156,351.791 126.52,351.559 126.884,351.327 127.247,351.095 127.611,350.864 127.975,350.632 128.338,350.4 128.702,350.168 129.066,349.936 129.429,349.704 129.793,349.473 130.157,349.241 130.52,349.009 130.884,348.777 131.248,348.545 131.611,348.313 131.975,348.082 132.339,347.85 132.702,347.618 133.066,347.386 133.43,347.154 133.793,346.922 134.157,346.691 134.521,346.459 134.884,346.227 135.248,345.995 135.612,345.763 135.975,345.531 136.339,345.299 136.703,345.068 137.066,344.836 137.43,344.604 137.794,344.372 138.157,344.14 138.521,343.908 138.885,343.677 139.248,343.445 139.612,343.213 139.976,342.981 140.339,342.749 140.703,342.517 141.067,342.286 141.43,342.054 141.794,341.822 142.158,341.59 142.521,341.358 142.885,341.126 143.249,340.895 143.612,340.663 143.976,340.431 144.34,340.199 144.703,339.967 145.067,339.735 145.431,339.504 145.794,339.272 146.158,339.04 146.522,338.808 146.885,338.576 147.249,338.344 147.613,338.113"
         fill="none"
         stroke="#0071bc"
         stroke-linecap="butt"
         stroke-linejoin="round"
         id="polyline610300"
         transform="matrix(0,0.39025251,-0.35277777,0,2045.8638,1008.4856)"
         style="display:inline"
         inkscape:transform-center-x="-14.192045"
         inkscape:transform-center-y="-8.1785819" />
      <path
         id="path610306"
         style="display:inline;fill:none;stroke:#000000;stroke-width:0.264583;stroke-miterlimit:4;stroke-dasharray:none;stroke-opacity:1"
         inkscape:transform-center-x="-73.900335"
         inkscape:transform-center-y="-8.3011919"
         d="m 1926.7077,1066.1739 -0.3718,-0.4027 -0.3739,-0.3922 -0.3758,-0.3809 -0.3774,-0.3692 -0.3793,-0.3567 -0.3809,-0.3426 -0.3821,-0.3286 -0.3835,-0.3134 -0.3845,-0.297 -0.3852,-0.2802 -0.386,-0.2618 -0.3859,-0.2432 -0.386,-0.2236 -0.3856,-0.2025 -0.3845,-0.1815 -0.3831,-0.1588 -0.3813,-0.1358 -0.3786,-0.112 -0.3757,-0.088 -0.3722,-0.063 -0.3683,-0.037 -0.363,-0.011 -0.3577,0.014 -0.352,0.041 -0.3451,0.067 -0.3379,0.094 -0.3302,0.1194 -0.3221,0.1455 -0.3133,0.1714 -0.3036,0.1964 -0.2946,0.2209 -0.2847,0.2447 -0.2741,0.2681 -0.2642,0.2903 -0.2533,0.3122 -0.2428,0.3329 -0.2321,0.3532 -0.2215,0.3715 -0.211,0.3903 -0.2003,0.4066 -0.1902,0.4234 -0.1803,0.4383 -0.17,0.4523 -0.1605,0.466 -0.1514,0.4788 -0.1425,0.4898 -0.1337,0.5011 -0.1256,0.5112 -0.1174,0.5202 -0.1101,0.5292 -0.1027,0.537 -0.096,0.5444 -0.09,0.551 -0.083,0.5573 -0.078,0.5631 -0.072,0.5686 -0.067,0.5729 -0.062,0.5776 -0.058,0.5818 -0.053,0.585 -0.05,0.5889 -0.045,0.5917 -0.042,0.5943 -0.04,0.5971 -0.036,0.5994 -0.034,0.6014 -0.031,0.6033 -0.029,0.6053 -0.026,0.6068 -0.024,0.6081 -0.022,0.6095 -0.021,0.6108 -0.019,0.6115 -0.017,0.6127 -0.016,0.6139 -0.015,0.6142 -0.013,0.6151 -0.012,0.6158 -0.012,0.6166 -0.011,0.617 -0.01,0.6174 -0.01,0.6177 -0.01,0.6182 -0.01,0.6189 -0.01,0.619 -0.01,0.6193 -0.01,0.6193 -0.01,0.6201 v 0.6201 0.6202 0.6205 0.6205 0.6209 0.6205 0.6212 0.6209 0.6213 0.6213 0.6213 0.6216 0.6217 0.6213 0.6217 0.6216 0.6221 l -10e-4,0.6217 v 0.6217 l -7e-4,0.622 -7e-4,0.6217 v 0.622 l -7e-4,0.6221 -3e-4,0.6217 -7e-4,0.6221 -4e-4,0.622 -7e-4,0.6221 -3e-4,0.622 -10e-5,0.061" />
      <path
         id="path610308"
         style="display:inline;fill:none;stroke:#000000;stroke-width:0.264583;stroke-miterlimit:4;stroke-dasharray:none;stroke-opacity:1"
         inkscape:transform-center-x="-39.226205"
         inkscape:transform-center-y="-61.510345"
         d="m 1926.7077,1066.1739 -0.1619,-0.5241 -0.152,-0.5206 -0.1415,-0.5167 -0.1302,-0.512 -0.1185,-0.5073 -0.1062,-0.5019 -0.093,-0.4956 -0.079,-0.4894 -0.065,-0.4823 -0.049,-0.4742 -0.034,-0.4659 -0.017,-0.4566 -4e-4,-0.4465 0.018,-0.4359 0.036,-0.4242 0.054,-0.4117 0.073,-0.3989 0.092,-0.3844 0.1118,-0.3699 0.1319,-0.3544 0.1517,-0.3379 0.1718,-0.3208 0.1916,-0.3032 0.2109,-0.2849 0.2307,-0.2658 0.2498,-0.2466 0.2688,-0.2268 0.2869,-0.2064 0.3044,-0.1862 0.3217,-0.1655 0.3379,-0.1452 0.3539,-0.1245 0.369,-0.1042 0.3831,-0.083 0.3965,-0.064 0.4092,-0.044 0.4213,-0.025 0.4321,-0.01 0.4424,0.012 0.4523,0.029 0.4607,0.047 0.4688,0.063 0.4763,0.079 0.4833,0.094 0.4893,0.1077 0.4949,0.1218 0.4999,0.1342 0.5045,0.1468 0.5087,0.158 0.5122,0.1694 0.5154,0.1791 0.5186,0.1889 0.5214,0.1982 0.5232,0.2061 0.5256,0.2142 0.5274,0.2217 0.5288,0.2287 0.5306,0.2349 0.5317,0.2404 0.5327,0.2466 0.5334,0.2514 0.5344,0.256 0.5352,0.2603 0.5355,0.2646 0.5362,0.2684 0.5366,0.2717 0.5373,0.2747 0.5373,0.2783 0.5376,0.2806 0.5376,0.2829 0.538,0.2853 0.538,0.2876 0.5383,0.2895 0.5384,0.2912 0.5383,0.2931 0.5387,0.2942 0.5383,0.2958 0.5387,0.2974 0.5384,0.2981 0.5387,0.2994 0.5386,0.3005 0.5384,0.3012 0.5387,0.3021 0.5383,0.3028 0.5387,0.3037 0.5384,0.3043 0.5383,0.3048 0.5387,0.3052 0.5383,0.306 0.5384,0.3063 0.5383,0.3064 0.5383,0.3071 0.5384,0.3075 0.5383,0.3079 0.538,0.3079 0.5384,0.3083 0.5383,0.3083 0.538,0.3091 0.5383,0.3087 0.538,0.3091 0.538,0.3094 0.5383,0.3095 0.538,0.3095 0.538,0.3098 0.538,0.3099 0.538,0.3099 0.5383,0.3102 0.538,0.3099 0.538,0.3102 0.538,0.3103 0.5376,0.3106 0.538,0.3103 0.538,0.3106 0.538,0.3107 0.5379,0.3106 0.538,0.3106 0.1101,0.064" />
      <path
         style="display:inline;fill:none;fill-opacity:1;stroke:#000000;stroke-width:0.264583;stroke-miterlimit:4;stroke-dasharray:none;stroke-dashoffset:0;stroke-opacity:1"
         id="path583188"
         transform="rotate(-30)"
         sodipodi:type="arc"
         sodipodi:cx="1135.4523"
         sodipodi:cy="1853.7948"
         sodipodi:rx="2.0280547"
         sodipodi:ry="2.0280547"
         sodipodi:start="0"
         sodipodi:end="1.0446131"
         sodipodi:arc-type="slice"
         d="m 1137.4803,1853.7948 a 2.0280547,2.0280547 0 0 1 -1.0095,1.7537 l -1.0185,-1.7537 z" />
      <text
         xml:space="preserve"
         style="font-size:3.88056px;line-height:125%;font-family:'Public Sans';-inkscape-font-specification:'Public Sans, Normal';text-align:center;letter-spacing:0px;word-spacing:0px;writing-mode:lr-tb;text-anchor:middle;display:inline;fill:none;stroke:#000000;stroke-width:0.264583px;stroke-linecap:butt;stroke-linejoin:miter;stroke-opacity:1"
         x="1918.0406"
         y="1039.113"
         id="text584731"><tspan
           sodipodi:role="line"
           id="tspan584729"
           style="font-style:normal;font-variant:normal;font-weight:bold;font-stretch:normal;font-family:'Public Sans';-inkscape-font-specification:'Public Sans Bold';fill:#000000;fill-opacity:1;stroke:none;stroke-width:0.264583px"
           x="1918.0406"
           y="1039.113">60</tspan></text>
      <path
         style="display:inline;fill:none;fill-opacity:1;stroke:#000000;stroke-width:0.264583;stroke-miterlimit:4;stroke-dasharray:none;stroke-dashoffset:0;stroke-opacity:1"
         id="path583188-5"
         transform="matrix(-0.8660254,-0.5,-0.5,0.8660254,0,0)"
         sodipodi:type="arc"
         sodipodi:cx="-2201.6257"
         sodipodi:cy="-72.912689"
         sodipodi:rx="2.0280547"
         sodipodi:ry="2.0280547"
         sodipodi:start="0.28422403"
         sodipodi:end="0.77145214"
         sodipodi:arc-type="slice"
         d="m -2199.679,-72.343997 a 2.0280547,2.0280547 0 0 1 -0.4928,0.845221 l -1.4539,-1.413913 z" />
    </g>
  </g>
</svg>
