<?xml version="1.0" encoding="UTF-8" standalone="no"?>
<!-- Created with Inkscape (http://www.inkscape.org/) -->

<svg
   width="172.202mm"
   height="134.93877mm"
   viewBox="0 0 172.202 134.93877"
   version="1.1"
   id="svg755752"
   inkscape:version="1.1 (c68e22c387, 2021-05-23)"
   sodipodi:docname="hyperbolic-tree-angle.svg"
   xmlns:inkscape="http://www.inkscape.org/namespaces/inkscape"
   xmlns:sodipodi="http://sodipodi.sourceforge.net/DTD/sodipodi-0.dtd"
   xmlns="http://www.w3.org/2000/svg"
   xmlns:svg="http://www.w3.org/2000/svg">
  <sodipodi:namedview
     id="namedview755754"
     pagecolor="#ffffff"
     bordercolor="#666666"
     borderopacity="1.0"
     inkscape:pageshadow="2"
     inkscape:pageopacity="0.0"
     inkscape:pagecheckerboard="0"
     inkscape:document-units="mm"
     showgrid="false"
     lock-margins="true"
     fit-margin-top="2"
     fit-margin-left="2"
     fit-margin-right="2"
     fit-margin-bottom="2"
     inkscape:zoom="0.94867184"
     inkscape:cx="278.81085"
     inkscape:cy="431.65611"
     inkscape:window-width="2560"
     inkscape:window-height="1377"
     inkscape:window-x="-8"
     inkscape:window-y="-8"
     inkscape:window-maximized="1"
     inkscape:current-layer="layer1"
     inkscape:snap-page="true" />
  <defs
     id="defs755749" />
  <g
     inkscape:label="Layer 1"
     inkscape:groupmode="layer"
     id="layer1"
     transform="translate(-17.632092,-63.478826)">
    <rect
       style="fill:#ffffff;stroke:none;stroke-width:0.529167;fill-opacity:1"
       id="rect915"
       width="172.20198"
       height="134.93877"
       x="17.632092"
       y="63.478825" />
    <g
       id="g219362"
       transform="translate(-1005.6726,-183.92907)"
       style="display:inline">
      <polyline
         stroke-width="0.5"
         points="74.88,384.48 74.88,32.4"
         stroke-dasharray="16, 0"
         fill="none"
         stroke="#262626"
         stroke-linecap="butt"
         stroke-linejoin="miter"
         stroke-opacity="0.15"
         id="polyline203993"
         transform="matrix(0.35277777,0,0,0.35277777,1004.8875,239.18333)" />
      <polyline
         stroke-width="0.5"
         points="138.651,384.48 138.651,32.4"
         stroke-dasharray="16, 0"
         fill="none"
         stroke="#262626"
         stroke-linecap="butt"
         stroke-linejoin="miter"
         stroke-opacity="0.15"
         id="polyline203995"
         transform="matrix(0.35277777,0,0,0.35277777,1004.8875,239.18333)" />
      <polyline
         stroke-width="0.5"
         points="202.423,384.48 202.423,32.4"
         stroke-dasharray="16, 0"
         fill="none"
         stroke="#262626"
         stroke-linecap="butt"
         stroke-linejoin="miter"
         stroke-opacity="0.15"
         id="polyline203997"
         transform="matrix(0.35277777,0,0,0.35277777,1004.8875,239.18333)" />
      <polyline
         stroke-width="0.5"
         points="266.194,384.48 266.194,32.4"
         stroke-dasharray="16, 0"
         fill="none"
         stroke="#262626"
         stroke-linecap="butt"
         stroke-linejoin="miter"
         stroke-opacity="0.15"
         id="polyline203999"
         transform="matrix(0.35277777,0,0,0.35277777,1004.8875,239.18333)" />
      <polyline
         stroke-width="0.5"
         points="329.966,384.48 329.966,32.4"
         stroke-dasharray="16, 0"
         fill="none"
         stroke="#262626"
         stroke-linecap="butt"
         stroke-linejoin="miter"
         stroke-opacity="0.15"
         id="polyline204001"
         transform="matrix(0.35277777,0,0,0.35277777,1004.8875,239.18333)" />
      <polyline
         stroke-width="0.5"
         points="393.737,384.48 393.737,32.4"
         stroke-dasharray="16, 0"
         fill="none"
         stroke="#262626"
         stroke-linecap="butt"
         stroke-linejoin="miter"
         stroke-opacity="0.15"
         id="polyline204003"
         transform="matrix(0.35277777,0,0,0.35277777,1004.8875,239.18333)" />
      <polyline
         stroke-width="0.5"
         points="457.509,384.48 457.509,32.4"
         stroke-dasharray="16, 0"
         fill="none"
         stroke="#262626"
         stroke-linecap="butt"
         stroke-linejoin="miter"
         stroke-opacity="0.15"
         id="polyline204005"
         transform="matrix(0.35277777,0,0,0.35277777,1004.8875,239.18333)" />
      <polyline
         stroke-width="0.5"
         points="521.28,384.48 521.28,32.4"
         stroke-dasharray="16, 0"
         fill="none"
         stroke="#262626"
         stroke-linecap="butt"
         stroke-linejoin="miter"
         stroke-opacity="0.15"
         id="polyline204007"
         transform="matrix(0.35277777,0,0,0.35277777,1004.8875,239.18333)" />
      <polyline
         stroke-width="0.5"
         points="74.88,384.48 74.88,380.015"
         fill="none"
         stroke="#262626"
         stroke-linecap="butt"
         stroke-linejoin="miter"
         id="polyline204009"
         transform="matrix(0.35277777,0,0,0.35277777,1004.8875,239.18333)" />
      <polyline
         stroke-width="0.5"
         points="138.651,384.48 138.651,380.015"
         fill="none"
         stroke="#262626"
         stroke-linecap="butt"
         stroke-linejoin="miter"
         id="polyline204011"
         transform="matrix(0.35277777,0,0,0.35277777,1004.8875,239.18333)" />
      <polyline
         stroke-width="0.5"
         points="202.423,384.48 202.423,380.015"
         fill="none"
         stroke="#262626"
         stroke-linecap="butt"
         stroke-linejoin="miter"
         id="polyline204013"
         transform="matrix(0.35277777,0,0,0.35277777,1004.8875,239.18333)" />
      <polyline
         stroke-width="0.5"
         points="266.194,384.48 266.194,380.015"
         fill="none"
         stroke="#262626"
         stroke-linecap="butt"
         stroke-linejoin="miter"
         id="polyline204015"
         transform="matrix(0.35277777,0,0,0.35277777,1004.8875,239.18333)" />
      <polyline
         stroke-width="0.5"
         points="329.966,384.48 329.966,380.015"
         fill="none"
         stroke="#262626"
         stroke-linecap="butt"
         stroke-linejoin="miter"
         id="polyline204017"
         transform="matrix(0.35277777,0,0,0.35277777,1004.8875,239.18333)" />
      <polyline
         stroke-width="0.5"
         points="393.737,384.48 393.737,380.015"
         fill="none"
         stroke="#262626"
         stroke-linecap="butt"
         stroke-linejoin="miter"
         id="polyline204019"
         transform="matrix(0.35277777,0,0,0.35277777,1004.8875,239.18333)" />
      <polyline
         stroke-width="0.5"
         points="457.509,384.48 457.509,380.015"
         fill="none"
         stroke="#262626"
         stroke-linecap="butt"
         stroke-linejoin="miter"
         id="polyline204021"
         transform="matrix(0.35277777,0,0,0.35277777,1004.8875,239.18333)" />
      <polyline
         stroke-width="0.5"
         points="521.28,384.48 521.28,380.015"
         fill="none"
         stroke="#262626"
         stroke-linecap="butt"
         stroke-linejoin="miter"
         id="polyline204023"
         transform="matrix(0.35277777,0,0,0.35277777,1004.8875,239.18333)" />
      <text
         font-style="normal"
         font-size="3.52778px"
         xml:space="preserve"
         font-weight="normal"
         font-family="FreeSans"
         id="text204027"
         x="1030.2452"
         y="380.28809"
         style="stroke-width:0.352778">     <tspan
   y="380.28809"
   fill="#262626"
   x="1030.2452"
   id="tspan204025"
   style="stroke-width:0.124452">0</tspan>   </text>
      <text
         font-style="normal"
         font-size="3.52778px"
         xml:space="preserve"
         font-weight="normal"
         font-family="FreeSans"
         id="text204031"
         x="1052.7422"
         y="380.28809"
         style="stroke-width:0.352778">     <tspan
   y="380.28809"
   fill="#262626"
   x="1052.7422"
   id="tspan204029"
   style="stroke-width:0.124452">2</tspan>   </text>
      <text
         font-style="normal"
         font-size="3.52778px"
         xml:space="preserve"
         font-weight="normal"
         font-family="FreeSans"
         id="text204035"
         x="1075.2395"
         y="380.28809"
         style="stroke-width:0.352778">     <tspan
   y="380.28809"
   fill="#262626"
   x="1075.2395"
   id="tspan204033"
   style="stroke-width:0.124452">4</tspan>   </text>
      <text
         font-style="normal"
         font-size="3.52778px"
         xml:space="preserve"
         font-weight="normal"
         font-family="FreeSans"
         id="text204039"
         x="1097.7365"
         y="380.28809"
         style="stroke-width:0.352778">     <tspan
   y="380.28809"
   fill="#262626"
   x="1097.7365"
   id="tspan204037"
   style="stroke-width:0.124452">6</tspan>   </text>
      <text
         font-style="normal"
         font-size="3.52778px"
         xml:space="preserve"
         font-weight="normal"
         font-family="FreeSans"
         id="text204043"
         x="1120.2338"
         y="380.28809"
         style="stroke-width:0.352778">     <tspan
   y="380.28809"
   fill="#262626"
   x="1120.2338"
   id="tspan204041"
   style="stroke-width:0.124452">8</tspan>   </text>
      <text
         font-style="normal"
         font-size="3.52778px"
         xml:space="preserve"
         font-weight="normal"
         font-family="FreeSans"
         id="text204047"
         x="1141.6725"
         y="380.28809"
         style="stroke-width:0.352778">     <tspan
   y="380.28809"
   fill="#262626"
   x="1141.6725 1143.7892"
   id="tspan204045"
   style="stroke-width:0.124452">10</tspan>   </text>
      <text
         font-style="normal"
         font-size="3.52778px"
         xml:space="preserve"
         font-weight="normal"
         font-family="FreeSans"
         id="text204051"
         x="1164.1698"
         y="380.28809"
         style="stroke-width:0.352778">     <tspan
   y="380.28809"
   fill="#262626"
   x="1164.1698 1166.2865"
   id="tspan204049"
   style="stroke-width:0.124452">12</tspan>   </text>
      <text
         font-style="normal"
         font-size="3.52778px"
         xml:space="preserve"
         font-weight="normal"
         font-family="FreeSans"
         id="text204055"
         x="1186.6667"
         y="380.28809"
         style="stroke-width:0.352778">     <tspan
   y="380.28809"
   fill="#262626"
   x="1186.6667 1188.7834"
   id="tspan204053"
   style="stroke-width:0.124452">14</tspan>   </text>
      <polyline
         stroke-width="0.5"
         points="74.88,384.48 521.28,384.48"
         stroke-dasharray="16, 0"
         fill="none"
         stroke="#262626"
         stroke-linecap="butt"
         stroke-linejoin="miter"
         stroke-opacity="0.15"
         id="polyline204057"
         transform="matrix(0.35277777,0,0,0.35277777,1004.8875,239.18333)" />
      <polyline
         stroke-width="0.5"
         points="74.88,314.064 521.28,314.064"
         stroke-dasharray="16, 0"
         fill="none"
         stroke="#262626"
         stroke-linecap="butt"
         stroke-linejoin="miter"
         stroke-opacity="0.15"
         id="polyline204059"
         transform="matrix(0.35277777,0,0,0.35277777,1004.8875,239.18333)" />
      <polyline
         stroke-width="0.5"
         points="74.88,243.648 521.28,243.648"
         stroke-dasharray="16, 0"
         fill="none"
         stroke="#262626"
         stroke-linecap="butt"
         stroke-linejoin="miter"
         stroke-opacity="0.15"
         id="polyline204061"
         transform="matrix(0.35277777,0,0,0.35277777,1004.8875,239.18333)" />
      <polyline
         stroke-width="0.5"
         points="74.88,173.232 521.28,173.232"
         stroke-dasharray="16, 0"
         fill="none"
         stroke="#262626"
         stroke-linecap="butt"
         stroke-linejoin="miter"
         stroke-opacity="0.15"
         id="polyline204063"
         transform="matrix(0.35277777,0,0,0.35277777,1004.8875,239.18333)" />
      <polyline
         stroke-width="0.5"
         points="74.88,102.816 521.28,102.816"
         stroke-dasharray="16, 0"
         fill="none"
         stroke="#262626"
         stroke-linecap="butt"
         stroke-linejoin="miter"
         stroke-opacity="0.15"
         id="polyline204065"
         transform="matrix(0.35277777,0,0,0.35277777,1004.8875,239.18333)" />
      <polyline
         stroke-width="0.5"
         points="74.88,32.4 521.28,32.4"
         stroke-dasharray="16, 0"
         fill="none"
         stroke="#262626"
         stroke-linecap="butt"
         stroke-linejoin="miter"
         stroke-opacity="0.15"
         id="polyline204067"
         transform="matrix(0.35277777,0,0,0.35277777,1004.8875,239.18333)" />
      <polyline
         stroke-width="0.5"
         points="74.88,384.48 79.348,384.48"
         fill="none"
         stroke="#262626"
         stroke-linecap="butt"
         stroke-linejoin="miter"
         id="polyline204069"
         transform="matrix(0.35277777,0,0,0.35277777,1004.8875,239.18333)" />
      <polyline
         stroke-width="0.5"
         points="74.88,314.064 79.348,314.064"
         fill="none"
         stroke="#262626"
         stroke-linecap="butt"
         stroke-linejoin="miter"
         id="polyline204071"
         transform="matrix(0.35277777,0,0,0.35277777,1004.8875,239.18333)" />
      <polyline
         stroke-width="0.5"
         points="74.88,243.648 79.348,243.648"
         fill="none"
         stroke="#262626"
         stroke-linecap="butt"
         stroke-linejoin="miter"
         id="polyline204073"
         transform="matrix(0.35277777,0,0,0.35277777,1004.8875,239.18333)" />
      <polyline
         stroke-width="0.5"
         points="74.88,173.232 79.348,173.232"
         fill="none"
         stroke="#262626"
         stroke-linecap="butt"
         stroke-linejoin="miter"
         id="polyline204075"
         transform="matrix(0.35277777,0,0,0.35277777,1004.8875,239.18333)" />
      <polyline
         stroke-width="0.5"
         points="74.88,102.816 79.348,102.816"
         fill="none"
         stroke="#262626"
         stroke-linecap="butt"
         stroke-linejoin="miter"
         id="polyline204077"
         transform="matrix(0.35277777,0,0,0.35277777,1004.8875,239.18333)" />
      <polyline
         stroke-width="0.5"
         points="74.88,32.4 79.348,32.4"
         fill="none"
         stroke="#262626"
         stroke-linecap="butt"
         stroke-linejoin="miter"
         id="polyline204079"
         transform="matrix(0.35277777,0,0,0.35277777,1004.8875,239.18333)" />
      <text
         font-style="normal"
         font-size="3.52778px"
         xml:space="preserve"
         font-weight="normal"
         font-family="FreeSans"
         id="text204083"
         x="1027.4214"
         y="376.23044"
         style="stroke-width:0.352778">     <tspan
   y="376.23044"
   fill="#262626"
   x="1027.4214"
   id="tspan204081"
   style="stroke-width:0.124452">0</tspan>   </text>
      <text
         font-style="normal"
         font-size="3.52778px"
         xml:space="preserve"
         font-weight="normal"
         font-family="FreeSans"
         id="text204087"
         x="1027.4214"
         y="351.38925"
         style="stroke-width:0.352778">     <tspan
   y="351.38925"
   fill="#262626"
   x="1027.4214"
   id="tspan204085"
   style="stroke-width:0.124452">2</tspan>   </text>
      <text
         font-style="normal"
         font-size="3.52778px"
         xml:space="preserve"
         font-weight="normal"
         font-family="FreeSans"
         id="text204091"
         x="1027.4214"
         y="326.54803"
         style="stroke-width:0.352778">     <tspan
   y="326.54803"
   fill="#262626"
   x="1027.4214"
   id="tspan204089"
   style="stroke-width:0.124452">4</tspan>   </text>
      <text
         font-style="normal"
         font-size="3.52778px"
         xml:space="preserve"
         font-weight="normal"
         font-family="FreeSans"
         id="text204095"
         x="1027.4214"
         y="301.70685"
         style="stroke-width:0.352778">     <tspan
   y="301.70685"
   fill="#262626"
   x="1027.4214"
   id="tspan204093"
   style="stroke-width:0.124452">6</tspan>   </text>
      <text
         font-style="normal"
         font-size="3.52778px"
         xml:space="preserve"
         font-weight="normal"
         font-family="FreeSans"
         id="text204099"
         x="1027.4214"
         y="276.86563"
         style="stroke-width:0.352778">     <tspan
   y="276.86563"
   fill="#262626"
   x="1027.4214"
   id="tspan204097"
   style="stroke-width:0.124452">8</tspan>   </text>
      <text
         font-style="normal"
         font-size="3.52778px"
         xml:space="preserve"
         font-weight="normal"
         font-family="FreeSans"
         id="text204103"
         x="1025.3047"
         y="252.02444"
         style="stroke-width:0.352778">     <tspan
   y="252.02444"
   fill="#262626"
   x="1025.3047 1027.4214"
   id="tspan204101"
   style="stroke-width:0.124452">10</tspan>   </text>
      <polyline
         stroke-width="0.5"
         points="74.88,384.48 521.28,384.48"
         stroke-dasharray="16, 0"
         fill="none"
         stroke="#262626"
         stroke-linecap="square"
         stroke-linejoin="miter"
         id="polyline204105"
         transform="matrix(0.35277777,0,0,0.35277777,1004.8875,239.18333)" />
      <polyline
         stroke-width="0.5"
         points="74.88,384.48 74.88,32.4"
         stroke-dasharray="16, 0"
         fill="none"
         stroke="#262626"
         stroke-linecap="square"
         stroke-linejoin="miter"
         id="polyline204107"
         transform="matrix(0.35277777,0,0,0.35277777,1004.8875,239.18333)" />
      <polyline
         stroke-width="0.5"
         points="74.88,384.48 76.4743,384.48 78.0686,384.48 79.6629,384.48 81.2571,384.48 82.8514,384.48 84.4457,384.48 86.04,384.48 87.6343,384.48 89.2286,384.48 90.8229,384.48 92.4171,384.48 94.0114,384.48 95.6057,384.48 97.2,384.48 98.7943,384.48 100.389,384.48 101.983,384.48 103.577,384.48 105.171,384.48 106.766,384.48 108.36,384.48 109.954,384.48 111.549,384.48 113.143,384.48 114.737,384.48 116.331,384.48 117.926,384.48 119.52,384.48 121.114,384.48 122.709,384.48 124.303,384.48 125.897,384.48 127.491,384.48 129.086,384.48 130.68,384.48 132.274,384.48 133.869,384.48 135.463,384.48 137.057,384.48 138.651,384.48 140.246,384.48 141.84,384.48 143.434,384.48 145.029,384.48 146.623,384.48 148.217,384.48 149.811,384.48 151.406,384.48 153,384.48 154.594,384.48 156.189,384.48 157.783,384.48 159.377,384.48 160.971,384.48 162.566,384.48 164.16,384.48 165.754,384.48 167.349,384.48 168.943,384.48 170.537,384.48 172.131,384.48 173.726,384.48 175.32,384.48 176.914,384.48 178.509,384.48 180.103,384.48 181.697,384.48 183.291,384.48 184.886,384.48 186.48,384.48 188.074,384.48 189.669,384.48 191.263,384.48 192.857,384.48 194.451,384.48 196.046,384.48 197.64,384.48 199.234,384.48 200.829,384.48 202.423,384.48 204.017,384.48 205.611,384.48 207.206,384.48 208.8,384.48 210.394,384.48 211.989,384.48 213.583,384.48 215.177,384.48 216.771,384.48 218.366,384.48 219.96,384.48 221.554,384.48 223.149,384.48 224.743,384.48 226.337,384.48 227.931,384.48 229.526,384.48 231.12,384.48 232.714,384.48 234.309,384.48 235.903,384.48 237.497,384.48 239.091,384.48 240.686,384.48 242.28,384.48 243.874,384.48 245.469,384.48 247.063,384.48 248.657,384.48 250.251,384.48 251.846,384.48 253.44,384.48 255.034,384.48 256.629,384.48 258.223,384.48 259.817,384.48 261.411,384.48 263.006,384.48 264.6,384.48 266.194,384.48 267.789,384.48 269.383,384.48 270.977,384.48 272.571,384.48 274.166,384.48 275.76,384.48 277.354,384.48 278.949,384.48 280.543,384.48 282.137,384.48 283.731,384.48 285.326,384.48 286.92,384.48 288.514,384.48 290.109,384.48 291.703,384.48 293.297,384.48 294.891,384.48 296.486,384.48 298.08,384.48 299.674,384.48 301.269,384.48 302.863,384.48 304.457,384.48 306.051,384.48 307.646,384.48 309.24,384.48 310.834,384.48 312.429,384.48 314.023,384.48 315.617,384.48 317.211,384.48 318.806,384.48 320.4,384.48 321.994,384.48 323.589,384.48 325.183,384.48 326.777,384.48 328.371,384.48 329.966,384.48 331.56,384.48 333.154,384.48 334.749,384.48 336.343,384.48 337.937,384.48 339.531,384.48 341.126,384.48 342.72,384.48 344.314,384.48 345.909,384.48 347.503,384.48 349.097,384.48 350.691,384.48 352.286,384.48 353.88,384.48 355.474,384.48 357.069,384.48 358.663,384.48 360.257,384.48 361.851,384.48 363.446,384.48 365.04,384.48 366.634,384.48 368.229,384.48 369.823,384.48 371.417,384.48 373.011,384.48 374.606,384.48 376.2,384.48 377.794,384.48 379.389,384.48 380.983,384.48 382.577,384.48 384.171,384.48 385.766,384.48 387.36,384.48 388.954,384.48 390.549,384.48 392.143,384.48 393.737,384.48"
         fill="none"
         stroke="#000000"
         stroke-linecap="butt"
         stroke-linejoin="round"
         id="polyline204109"
         transform="matrix(0.35277777,0,0,0.35277777,1004.8875,239.18333)" />
      <polyline
         stroke-width="0.5"
         points="74.88,384.48 75.6771,382.955 76.4743,381.431 77.2714,379.906 78.0686,378.382 78.8657,376.857 79.6629,375.333 80.46,373.808 81.2571,372.284 82.0543,370.759 82.8514,369.234 83.6486,367.71 84.4457,366.185 85.2429,364.661 86.04,363.136 86.8371,361.612 87.6343,360.087 88.4314,358.563 89.2286,357.038 90.0257,355.514 90.8229,353.989 91.62,352.464 92.4171,350.94 93.2143,349.415 94.0114,347.891 94.8086,346.366 95.6057,344.842 96.4028,343.317 97.2,341.793 97.9971,340.268 98.7943,338.743 99.5914,337.219 100.389,335.694 101.186,334.17 101.983,332.645 102.78,331.121 103.577,329.596 104.374,328.072 105.171,326.547 105.969,325.023 106.766,323.498 107.563,321.973 108.36,320.449 109.157,318.924 109.954,317.4 110.751,315.875 111.549,314.351 112.346,312.826 113.143,311.302 113.94,309.777 114.737,308.252 115.534,306.728 116.331,305.203 117.129,303.679 117.926,302.154 118.723,300.63 119.52,299.105 120.317,297.581 121.114,296.056 121.911,294.531 122.709,293.007 123.506,291.482 124.303,289.958 125.1,288.433 125.897,286.909 126.694,285.384 127.491,283.86 128.289,282.335 129.086,280.811 129.883,279.286 130.68,277.761 131.477,276.237 132.274,274.712 133.071,273.188 133.869,271.663 134.666,270.139 135.463,268.614 136.26,267.09 137.057,265.565 137.854,264.04 138.651,262.516 139.449,260.991 140.246,259.467 141.043,257.942 141.84,256.418 142.637,254.893 143.434,253.369 144.231,251.844 145.029,250.32 145.826,248.795 146.623,247.27 147.42,245.746 148.217,244.221 149.014,242.697 149.811,241.172 150.609,239.648 151.406,238.123 152.203,236.599 153,235.074 153.797,233.549 154.594,232.025 155.391,230.5 156.189,228.976 156.986,227.451 157.783,225.927 158.58,224.402 159.377,222.878 160.174,221.353 160.971,219.828 161.769,218.304 162.566,216.779 163.363,215.255 164.16,213.73 164.957,212.206 165.754,210.681 166.551,209.157 167.349,207.632 168.146,206.108 168.943,204.583 169.74,203.058 170.537,201.534 171.334,200.009 172.131,198.485 172.929,196.96 173.726,195.436 174.523,193.911 175.32,192.387 176.117,190.862 176.914,189.337 177.711,187.813 178.509,186.288 179.306,184.764 180.103,183.239 180.9,181.715 181.697,180.19 182.494,178.666 183.291,177.141 184.089,175.617 184.886,174.092 185.683,172.567 186.48,171.043 187.277,169.518 188.074,167.994 188.871,166.469 189.669,164.945 190.466,163.42 191.263,161.896 192.06,160.371 192.857,158.846 193.654,157.322 194.451,155.797 195.249,154.273 196.046,152.748 196.843,151.224 197.64,149.699 198.437,148.175 199.234,146.65 200.031,145.125 200.829,143.601 201.626,142.076 202.423,140.552 203.22,139.027 204.017,137.503 204.814,135.978 205.611,134.454 206.409,132.929 207.206,131.405 208.003,129.88 208.8,128.355 209.597,126.831 210.394,125.306 211.191,123.782 211.989,122.257 212.786,120.733 213.583,119.208 214.38,117.684 215.177,116.159 215.974,114.634 216.771,113.11 217.569,111.585 218.366,110.061 219.163,108.536 219.96,107.012 220.757,105.487 221.554,103.963 222.351,102.438 223.149,100.914 223.946,99.3889 224.743,97.8644 225.54,96.3398 226.337,94.8153 227.134,93.2908 227.931,91.7662 228.729,90.2416 229.526,88.7171 230.323,87.1925 231.12,85.668 231.917,84.1434 232.714,82.6189 233.511,81.0943 234.309,79.5698"
         fill="none"
         stroke="#000000"
         stroke-linecap="butt"
         stroke-linejoin="round"
         id="polyline204111"
         transform="matrix(0.35277777,0,0,0.35277777,1004.8875,239.18333)" />
      <polyline
         stroke-width="0.5"
         points="147.613,338.113 146.581,339.167 145.576,340.227 144.6,341.292 143.654,342.362 142.74,343.437 141.862,344.517 141.02,345.6 140.217,346.687 139.456,347.777 138.738,348.869 138.067,349.963 137.444,351.057 136.871,352.151 136.352,353.244 135.887,354.334 135.48,355.42 135.132,356.501 134.845,357.574 134.62,358.639 134.459,359.694 134.363,360.738 134.334,361.767 134.371,362.781 134.476,363.779 134.648,364.757 134.888,365.715 135.194,366.651 135.567,367.564 136.006,368.452 136.509,369.313 137.075,370.148 137.702,370.955 138.389,371.732 139.133,372.481 139.933,373.199 140.786,373.887 141.691,374.545 142.643,375.173 143.643,375.771 144.685,376.339 145.77,376.878 146.893,377.389 148.052,377.871 149.246,378.326 150.473,378.755 151.728,379.159 153.012,379.538 154.322,379.894 155.655,380.227 157.011,380.539 158.387,380.83 159.782,381.102 161.194,381.356 162.622,381.592 164.065,381.812 165.522,382.016 166.99,382.206 168.47,382.382 169.961,382.546 171.46,382.697 172.969,382.838 174.485,382.967 176.008,383.087 177.538,383.199 179.074,383.301 180.615,383.396 182.161,383.483 183.712,383.564 185.267,383.638 186.825,383.707 188.387,383.77 189.952,383.828 191.519,383.882 193.089,383.931 194.662,383.976 196.236,384.018 197.812,384.056 199.39,384.091 200.97,384.124 202.551,384.154 204.133,384.181 205.716,384.206 207.3,384.229 208.886,384.25 210.472,384.269 212.059,384.287 213.646,384.303 215.235,384.318 216.824,384.332 218.413,384.345 220.003,384.356 221.593,384.367 223.184,384.376 224.774,384.385 226.366,384.393 227.957,384.401 229.549,384.408 231.141,384.414 232.733,384.419 234.326,384.425 235.919,384.429 237.511,384.434 239.104,384.438 240.697,384.441 242.291,384.445 243.884,384.448 245.477,384.451 247.071,384.453 248.664,384.455 250.258,384.458 251.852,384.46 253.445,384.461 255.039,384.463 256.633,384.464 258.227,384.466 259.821,384.467 261.415,384.468 263.009,384.469 264.603,384.47 266.197,384.471 267.791,384.472 269.385,384.473 270.979,384.473 272.573,384.474 274.167,384.474 275.761,384.475 277.355,384.475 278.95,384.476 280.544,384.476 282.138,384.476 283.732,384.477 285.326,384.477 286.921,384.477 288.515,384.478 290.109,384.478 291.703,384.478 293.298,384.478 294.892,384.478 296.486,384.478 298.08,384.479 299.675,384.479 301.269,384.479 302.863,384.479 304.457,384.479 306.052,384.479 307.646,384.479 309.24,384.479 310.834,384.479 312.429,384.479 314.023,384.479 315.617,384.479 317.212,384.48 318.806,384.48 320.4,384.48 321.994,384.48 323.589,384.48 325.183,384.48 326.777,384.48 328.371,384.48 329.966,384.48 331.56,384.48 333.154,384.48 334.749,384.48 336.343,384.48 337.937,384.48 339.531,384.48 341.126,384.48 342.72,384.48 344.314,384.48 345.909,384.48 347.503,384.48 349.097,384.48 350.691,384.48 352.286,384.48 353.88,384.48 355.474,384.48 357.069,384.48 358.663,384.48 360.257,384.48 361.851,384.48 363.446,384.48 365.04,384.48 366.634,384.48 368.229,384.48 369.823,384.48 371.417,384.48 373.011,384.48 374.606,384.48 376.2,384.48 377.794,384.48 379.389,384.48 380.983,384.48 382.577,384.48 384.171,384.48 385.766,384.48 387.36,384.48 388.954,384.48 390.549,384.48 392.143,384.48 393.737,384.48"
         fill="none"
         stroke="#000000"
         stroke-linecap="butt"
         stroke-linejoin="round"
         id="polyline204113"
         transform="matrix(0.35277777,0,0,0.35277777,1004.8875,239.18333)" />
      <polyline
         stroke-width="0.5"
         points="147.613,338.113 146.27,338.572 144.936,339.003 143.612,339.404 142.3,339.773 141,340.109 139.714,340.41 138.444,340.673 137.19,340.897 135.954,341.08 134.739,341.22 133.545,341.316 132.375,341.364 131.231,341.365 130.114,341.315 129.027,341.214 127.972,341.061 126.95,340.853 125.965,340.591 125.017,340.274 124.109,339.9 123.243,339.47 122.421,338.983 121.644,338.44 120.914,337.842 120.233,337.188 119.601,336.48 119.02,335.718 118.491,334.905 118.014,334.042 117.59,333.13 117.218,332.172 116.899,331.169 116.632,330.123 116.418,329.037 116.254,327.913 116.141,326.753 116.077,325.559 116.061,324.334 116.092,323.08 116.167,321.798 116.287,320.492 116.448,319.163 116.65,317.813 116.89,316.443 117.166,315.056 117.478,313.653 117.822,312.236 118.198,310.806 118.603,309.364 119.037,307.912 119.496,306.451 119.98,304.981 120.488,303.503 121.016,302.02 121.565,300.53 122.133,299.035 122.719,297.536 123.321,296.032 123.937,294.525 124.569,293.015 125.213,291.503 125.869,289.988 126.536,288.471 127.214,286.953 127.902,285.433 128.598,283.912 129.302,282.389 130.015,280.866 130.734,279.342 131.459,277.818 132.19,276.293 132.927,274.768 133.669,273.242 134.415,271.716 135.166,270.19 135.92,268.663 136.678,267.137 137.44,265.61 138.204,264.084 138.971,262.557 139.741,261.03 140.513,259.504 141.287,257.977 142.063,256.451 142.841,254.924 143.621,253.398 144.402,251.872 145.184,250.345 145.968,248.819 146.753,247.293 147.538,245.767 148.325,244.241 149.113,242.715 149.902,241.189 150.691,239.664 151.481,238.138 152.271,236.612 153.063,235.087 153.854,233.561 154.646,232.036 155.439,230.511 156.232,228.985 157.025,227.46 157.819,225.935 158.613,224.41 159.407,222.885 160.202,221.359 160.996,219.834 161.791,218.309 162.586,216.784 163.382,215.26 164.177,213.735 164.973,212.21 165.769,210.685 166.565,209.16 167.361,207.635 168.157,206.11 168.953,204.586 169.749,203.061 170.545,201.536 171.342,200.011 172.138,198.487 172.935,196.962 173.731,195.437 174.528,193.913 175.325,192.388 176.121,190.863 176.918,189.339 177.715,187.814 178.512,186.289 179.309,184.765 180.106,183.24 180.902,181.715 181.699,180.191 182.496,178.666 183.293,177.142 184.09,175.617 184.887,174.092 185.684,172.568 186.481,171.043 187.278,169.519 188.075,167.994 188.872,166.47 189.669,164.945 190.467,163.42 191.264,161.896 192.061,160.371 192.858,158.847 193.655,157.322 194.452,155.797 195.249,154.273 196.046,152.748 196.843,151.224 197.64,149.699 198.437,148.175 199.235,146.65 200.032,145.126 200.829,143.601 201.626,142.076 202.423,140.552 203.22,139.027 204.017,137.503 204.814,135.978 205.612,134.454 206.409,132.929 207.206,131.405 208.003,129.88 208.8,128.355 209.597,126.831 210.394,125.306 211.191,123.782 211.989,122.257 212.786,120.733 213.583,119.208 214.38,117.684 215.177,116.159 215.974,114.634 216.771,113.11 217.569,111.585 218.366,110.061 219.163,108.536 219.96,107.012 220.757,105.487 221.554,103.963 222.351,102.438 223.149,100.914 223.946,99.3889 224.743,97.8644 225.54,96.3398 226.337,94.8153 227.134,93.2908 227.931,91.7662 228.729,90.2416 229.526,88.7171 230.323,87.1925 231.12,85.668 231.917,84.1434 232.714,82.6189 233.511,81.0943 234.309,79.5698"
         fill="none"
         stroke="#000000"
         stroke-linecap="butt"
         stroke-linejoin="round"
         id="polyline204115"
         transform="matrix(0.35277777,0,0,0.35277777,1004.8875,239.18333)" />
      <polyline
         stroke-width="0.5"
         points="147.613,338.113 146.27,338.572 144.936,339.003 143.612,339.404 142.3,339.773 141,340.109 139.714,340.41 138.444,340.673 137.19,340.897 135.954,341.08 134.739,341.22 133.545,341.316 132.375,341.364 131.231,341.365 130.114,341.315 129.027,341.214 127.972,341.061 126.95,340.853 125.965,340.591 125.017,340.274 124.109,339.9 123.243,339.47 122.421,338.983 121.644,338.44 120.914,337.842 120.233,337.188 119.601,336.48 119.02,335.718 118.491,334.905 118.014,334.042 117.59,333.13 117.218,332.172 116.899,331.169 116.632,330.123 116.418,329.037 116.254,327.913 116.141,326.753 116.077,325.559 116.061,324.334 116.092,323.08 116.167,321.798 116.287,320.492 116.448,319.163 116.65,317.813 116.89,316.443 117.166,315.056 117.478,313.653 117.822,312.236 118.198,310.806 118.603,309.364 119.037,307.912 119.496,306.451 119.98,304.981 120.488,303.503 121.016,302.02 121.565,300.53 122.133,299.035 122.719,297.536 123.321,296.032 123.937,294.525 124.569,293.015 125.213,291.503 125.869,289.988 126.536,288.471 127.214,286.953 127.902,285.433 128.598,283.912 129.302,282.389 130.015,280.866 130.734,279.342 131.459,277.818 132.19,276.293 132.927,274.768 133.669,273.242 134.415,271.716 135.166,270.19 135.92,268.663 136.678,267.137 137.44,265.61 138.204,264.084 138.971,262.557 139.741,261.03 140.513,259.504 141.287,257.977 142.063,256.451 142.841,254.924 143.621,253.398 144.402,251.872 145.184,250.345 145.968,248.819 146.753,247.293 147.538,245.767 148.325,244.241 149.113,242.715 149.902,241.189 150.691,239.664 151.481,238.138 152.271,236.612 153.063,235.087 153.854,233.561 154.646,232.036 155.439,230.511 156.232,228.985 157.025,227.46 157.819,225.935 158.613,224.41 159.407,222.885 160.202,221.359 160.996,219.834 161.791,218.309 162.586,216.784 163.382,215.26 164.177,213.735 164.973,212.21 165.769,210.685 166.565,209.16 167.361,207.635 168.157,206.11 168.953,204.586 169.749,203.061 170.545,201.536 171.342,200.011 172.138,198.487 172.935,196.962 173.731,195.437 174.528,193.913 175.325,192.388 176.121,190.863 176.918,189.339 177.715,187.814 178.512,186.289 179.309,184.765 180.106,183.24 180.902,181.715 181.699,180.191 182.496,178.666 183.293,177.142 184.09,175.617 184.887,174.092 185.684,172.568 186.481,171.043 187.278,169.519 188.075,167.994 188.872,166.47 189.669,164.945 190.467,163.42 191.264,161.896 192.061,160.371 192.858,158.847 193.655,157.322 194.452,155.797 195.249,154.273 196.046,152.748 196.843,151.224 197.64,149.699 198.437,148.175 199.235,146.65 200.032,145.126 200.829,143.601 201.626,142.076 202.423,140.552 203.22,139.027 204.017,137.503 204.814,135.978 205.612,134.454 206.409,132.929 207.206,131.405 208.003,129.88 208.8,128.355 209.597,126.831 210.394,125.306 211.191,123.782 211.989,122.257 212.786,120.733 213.583,119.208 214.38,117.684 215.177,116.159 215.974,114.634 216.771,113.11 217.569,111.585 218.366,110.061 219.163,108.536 219.96,107.012 220.757,105.487 221.554,103.963 222.351,102.438 223.149,100.914 223.946,99.3889 224.743,97.8644 225.54,96.3398 226.337,94.8153 227.134,93.2908 227.931,91.7662 228.729,90.2416 229.526,88.7171 230.323,87.1925 231.12,85.668 231.917,84.1434 232.714,82.6189 233.511,81.0943 234.309,79.5698"
         fill="none"
         stroke="#000000"
         stroke-linecap="butt"
         stroke-linejoin="round"
         id="polyline204125"
         transform="matrix(0.35277777,0,0,0.35277777,1004.8875,239.18333)" />
      <polyline
         stroke-width="0.5"
         points="147.613,338.113 146.581,339.167 145.576,340.227 144.6,341.292 143.654,342.362 142.74,343.437 141.862,344.517 141.02,345.6 140.217,346.687 139.456,347.777 138.738,348.869 138.067,349.963 137.444,351.057 136.871,352.151 136.352,353.244 135.887,354.334 135.48,355.42 135.132,356.501 134.845,357.574 134.62,358.639 134.459,359.694 134.363,360.738 134.334,361.767 134.371,362.781 134.476,363.779 134.648,364.757 134.888,365.715 135.194,366.651 135.567,367.564 136.006,368.452 136.509,369.313 137.075,370.148 137.702,370.955 138.389,371.732 139.133,372.481 139.933,373.199 140.786,373.887 141.691,374.545 142.643,375.173 143.643,375.771 144.685,376.339 145.77,376.878 146.893,377.389 148.052,377.871 149.246,378.326 150.473,378.755 151.728,379.159 153.012,379.538 154.322,379.894 155.655,380.227 157.011,380.539 158.387,380.83 159.782,381.102 161.194,381.356 162.622,381.592 164.065,381.812 165.522,382.016 166.99,382.206 168.47,382.382 169.961,382.546 171.46,382.697 172.969,382.838 174.485,382.967 176.008,383.087 177.538,383.199 179.074,383.301 180.615,383.396 182.161,383.483 183.712,383.564 185.267,383.638 186.825,383.707 188.387,383.77 189.952,383.828 191.519,383.882 193.089,383.931 194.662,383.976 196.236,384.018 197.812,384.056 199.39,384.091 200.97,384.124 202.551,384.154 204.133,384.181 205.716,384.206 207.3,384.229 208.886,384.25 210.472,384.269 212.059,384.287 213.646,384.303 215.235,384.318 216.824,384.332 218.413,384.345 220.003,384.356 221.593,384.367 223.184,384.376 224.774,384.385 226.366,384.393 227.957,384.401 229.549,384.408 231.141,384.414 232.733,384.419 234.326,384.425 235.919,384.429 237.511,384.434 239.104,384.438 240.697,384.441 242.291,384.445 243.884,384.448 245.477,384.451 247.071,384.453 248.664,384.455 250.258,384.458 251.852,384.46 253.445,384.461 255.039,384.463 256.633,384.464 258.227,384.466 259.821,384.467 261.415,384.468 263.009,384.469 264.603,384.47 266.197,384.471 267.791,384.472 269.385,384.473 270.979,384.473 272.573,384.474 274.167,384.474 275.761,384.475 277.355,384.475 278.95,384.476 280.544,384.476 282.138,384.476 283.732,384.477 285.326,384.477 286.921,384.477 288.515,384.478 290.109,384.478 291.703,384.478 293.298,384.478 294.892,384.478 296.486,384.478 298.08,384.479 299.675,384.479 301.269,384.479 302.863,384.479 304.457,384.479 306.052,384.479 307.646,384.479 309.24,384.479 310.834,384.479 312.429,384.479 314.023,384.479 315.617,384.479 317.212,384.48 318.806,384.48 320.4,384.48 321.994,384.48 323.589,384.48 325.183,384.48 326.777,384.48 328.371,384.48 329.966,384.48 331.56,384.48 333.154,384.48 334.749,384.48 336.343,384.48 337.937,384.48 339.531,384.48 341.126,384.48 342.72,384.48 344.314,384.48 345.909,384.48 347.503,384.48 349.097,384.48 350.691,384.48 352.286,384.48 353.88,384.48 355.474,384.48 357.069,384.48 358.663,384.48 360.257,384.48 361.851,384.48 363.446,384.48 365.04,384.48 366.634,384.48 368.229,384.48 369.823,384.48 371.417,384.48 373.011,384.48 374.606,384.48 376.2,384.48 377.794,384.48 379.389,384.48 380.983,384.48 382.577,384.48 384.171,384.48 385.766,384.48 387.36,384.48 388.954,384.48 390.549,384.48 392.143,384.48 393.737,384.48"
         fill="none"
         stroke="#000000"
         stroke-linecap="butt"
         stroke-linejoin="round"
         id="polyline204127"
         transform="matrix(0.35277777,0,0,0.35277777,1004.8875,239.18333)" />
      <polyline
         stroke-width="2"
         points="74.88,384.48 75.2437,384.248 75.6073,384.016 75.971,383.784 76.3347,383.553 76.6983,383.321 77.062,383.089 77.4256,382.857 77.7893,382.625 78.153,382.393 78.5166,382.162 78.8803,381.93 79.244,381.698 79.6076,381.466 79.9713,381.234 80.3349,381.002 80.6986,380.771 81.0623,380.539 81.4259,380.307 81.7896,380.075 82.1533,379.843 82.5169,379.611 82.8806,379.38 83.2442,379.148 83.6079,378.916 83.9716,378.684 84.3352,378.452 84.6989,378.22 85.0626,377.989 85.4262,377.757 85.7899,377.525 86.1535,377.293 86.5172,377.061 86.8809,376.829 87.2445,376.598 87.6082,376.366 87.9719,376.134 88.3355,375.902 88.6992,375.67 89.0628,375.438 89.4265,375.207 89.7902,374.975 90.1538,374.743 90.5175,374.511 90.8811,374.279 91.2448,374.047 91.6085,373.815 91.9722,373.584 92.3358,373.352 92.6995,373.12 93.0631,372.888 93.4268,372.656 93.7905,372.424 94.1541,372.193 94.5178,371.961 94.8814,371.729 95.2451,371.497 95.6088,371.265 95.9724,371.033 96.3361,370.802 96.6998,370.57 97.0634,370.338 97.4271,370.106 97.7907,369.874 98.1544,369.642 98.5181,369.411 98.8817,369.179 99.2454,368.947 99.6091,368.715 99.9727,368.483 100.336,368.251 100.7,368.02 101.064,367.788 101.427,367.556 101.791,367.324 102.155,367.092 102.518,366.86 102.882,366.629 103.246,366.397 103.609,366.165 103.973,365.933 104.337,365.701 104.7,365.469 105.064,365.237 105.428,365.006 105.791,364.774 106.155,364.542 106.519,364.31 106.882,364.078 107.246,363.846 107.61,363.615 107.973,363.383 108.337,363.151 108.701,362.919 109.064,362.687 109.428,362.455 109.792,362.224 110.155,361.992 110.519,361.76 110.883,361.528 111.246,361.296 111.61,361.064 111.974,360.833 112.337,360.601 112.701,360.369 113.065,360.137 113.428,359.905 113.792,359.673 114.156,359.442 114.519,359.21 114.883,358.978 115.247,358.746 115.61,358.514 115.974,358.282 116.338,358.051 116.701,357.819 117.065,357.587 117.429,357.355 117.792,357.123 118.156,356.891 118.52,356.66 118.883,356.428 119.247,356.196 119.611,355.964 119.974,355.732 120.338,355.5 120.701,355.268 121.065,355.037 121.429,354.805 121.792,354.573 122.156,354.341 122.52,354.109 122.883,353.878 123.247,353.646 123.611,353.414 123.974,353.182 124.338,352.95 124.702,352.718 125.065,352.486 125.429,352.255 125.793,352.023 126.156,351.791 126.52,351.559 126.884,351.327 127.247,351.095 127.611,350.864 127.975,350.632 128.338,350.4 128.702,350.168 129.066,349.936 129.429,349.704 129.793,349.473 130.157,349.241 130.52,349.009 130.884,348.777 131.248,348.545 131.611,348.313 131.975,348.082 132.339,347.85 132.702,347.618 133.066,347.386 133.43,347.154 133.793,346.922 134.157,346.691 134.521,346.459 134.884,346.227 135.248,345.995 135.612,345.763 135.975,345.531 136.339,345.299 136.703,345.068 137.066,344.836 137.43,344.604 137.794,344.372 138.157,344.14 138.521,343.908 138.885,343.677 139.248,343.445 139.612,343.213 139.976,342.981 140.339,342.749 140.703,342.517 141.067,342.286 141.43,342.054 141.794,341.822 142.158,341.59 142.521,341.358 142.885,341.126 143.249,340.895 143.612,340.663 143.976,340.431 144.34,340.199 144.703,339.967 145.067,339.735 145.431,339.504 145.794,339.272 146.158,339.04 146.522,338.808 146.885,338.576 147.249,338.344 147.613,338.113"
         fill="none"
         stroke="#0071bc"
         stroke-linecap="butt"
         stroke-linejoin="round"
         id="polyline204129"
         transform="matrix(0.35277777,0,0,0.35277777,1004.8875,239.18333)" />
    </g>
    <path
       style="display:inline;fill:none;fill-rule:evenodd;stroke:#000000;stroke-width:0.397;stroke-linecap:butt;stroke-linejoin:miter;stroke-miterlimit:4;stroke-dasharray:none;stroke-opacity:1"
       d="m 47.396594,176.97331 c -0.45677,-0.43176 -0.6144,-0.71687 -0.68853,-1.4168"
       id="path195029-3-2-4"
       sodipodi:nodetypes="cc" />
    <text
       xml:space="preserve"
       style="font-style:normal;font-variant:normal;font-weight:normal;font-stretch:normal;font-size:6.75769px;line-height:125%;font-family:'Public Sans';-inkscape-font-specification:'Public Sans, Normal';font-variant-ligatures:normal;font-variant-caps:normal;font-variant-numeric:normal;font-feature-settings:normal;text-align:start;letter-spacing:0px;word-spacing:0px;writing-mode:lr-tb;text-anchor:start;display:inline;fill:#000000;fill-opacity:1;stroke:none;stroke-width:0.46075px;stroke-linecap:butt;stroke-linejoin:miter;stroke-opacity:1"
       x="28.832003"
       y="-185.18338"
       id="text40788-1-1-5-2-1"
       transform="scale(1,-1)"><tspan
         sodipodi:role="line"
         id="tspan40786-9-9-7-0-9"
         x="28.832003"
         y="-185.18338"
         style="font-weight:normal;font-size:4.91469px;text-align:start;text-anchor:start;stroke-width:0.46075px">θ</tspan></text>
    <text
       xml:space="preserve"
       style="font-style:normal;font-variant:normal;font-weight:normal;font-stretch:normal;font-size:6.75769px;line-height:125%;font-family:'Public Sans';-inkscape-font-specification:'Public Sans, Normal';font-variant-ligatures:normal;font-variant-caps:normal;font-variant-numeric:normal;font-feature-settings:normal;text-align:start;letter-spacing:0px;word-spacing:0px;writing-mode:lr-tb;text-anchor:start;display:inline;fill:#000000;fill-opacity:1;stroke:none;stroke-width:0.46075px;stroke-linecap:butt;stroke-linejoin:miter;stroke-opacity:1"
       x="42.880527"
       y="-175.481"
       id="text40788-1-1-5-2-1-2"
       transform="scale(1,-1)"><tspan
         sodipodi:role="line"
         id="tspan40786-9-9-7-0-9-3"
         x="42.880527"
         y="-175.481"
         style="font-weight:normal;font-size:4.91469px;text-align:start;text-anchor:start;stroke-width:0.46075px">θ</tspan></text>
    <path
       style="display:inline;fill:none;fill-rule:evenodd;stroke:#000000;stroke-width:0.397;stroke-linecap:butt;stroke-linejoin:miter;stroke-miterlimit:4;stroke-dasharray:none;stroke-opacity:1"
       d="m 27.170924,188.08476 c 0.55349,0.29786 0.77995,0.53205 1.03387,1.1885"
       id="path195029-3-2-4-1"
       sodipodi:nodetypes="cc" />
  </g>
</svg>
