<?xml version="1.0" encoding="UTF-8" standalone="no"?>
<!-- Created with Inkscape (http://www.inkscape.org/) -->

<svg
   width="52.65097mm"
   height="52.707024mm"
   viewBox="0 0 52.65097 52.707024"
   version="1.1"
   id="svg686664"
   inkscape:version="1.1 (c68e22c387, 2021-05-23)"
   sodipodi:docname="tdoa.svg"
   xmlns:inkscape="http://www.inkscape.org/namespaces/inkscape"
   xmlns:sodipodi="http://sodipodi.sourceforge.net/DTD/sodipodi-0.dtd"
   xmlns="http://www.w3.org/2000/svg"
   xmlns:svg="http://www.w3.org/2000/svg">
  <sodipodi:namedview
     id="namedview686666"
     pagecolor="#ffffff"
     bordercolor="#666666"
     borderopacity="1.0"
     inkscape:pageshadow="2"
     inkscape:pageopacity="0.0"
     inkscape:pagecheckerboard="0"
     inkscape:document-units="mm"
     showgrid="false"
     lock-margins="true"
     fit-margin-top="2"
     fit-margin-left="2"
     fit-margin-right="2"
     fit-margin-bottom="2"
     inkscape:zoom="0.67081229"
     inkscape:cx="111.05938"
     inkscape:cy="158.76274"
     inkscape:window-width="2560"
     inkscape:window-height="1377"
     inkscape:window-x="-8"
     inkscape:window-y="-8"
     inkscape:window-maximized="1"
     inkscape:current-layer="layer1"
     inkscape:snap-page="true" />
  <defs
     id="defs686661" />
  <g
     inkscape:label="Layer 1"
     inkscape:groupmode="layer"
     id="layer1"
     transform="translate(-75.926209,-106.67173)">
    <rect
       style="fill:#ffffff;stroke-width:0.529167"
       id="rect864"
       width="52.650967"
       height="52.70702"
       x="75.926208"
       y="106.67173" />
    <g
       id="g369723"
       transform="matrix(1.4200738,0,0,1.4200738,-2529.5574,-378.76217)"
       inkscape:export-filename="C:\Users\Kurt\Downloads\tdoa.png"
       inkscape:export-xdpi="300"
       inkscape:export-ydpi="300"
       style="display:inline">
      <path
         style="fill:none;fill-rule:evenodd;stroke:#ff3931;stroke-width:0.264583px;stroke-linecap:butt;stroke-linejoin:miter;stroke-opacity:1"
         d="m 1853.228,360.37187 8.2173,-4.28691"
         id="path369687"
         sodipodi:nodetypes="cc" />
      <path
         style="fill:none;fill-rule:evenodd;stroke:#0052ff;stroke-width:0.264583px;stroke-linecap:butt;stroke-linejoin:miter;stroke-opacity:1"
         d="m 1849.6309,354.6782 3.5971,5.69367"
         id="path369689"
         sodipodi:nodetypes="cc" />
      <path
         style="fill:none;fill-rule:evenodd;stroke:#ffa500;stroke-width:0.264583px;stroke-linecap:butt;stroke-linejoin:miter;stroke-opacity:1"
         d="m 1853.228,360.37187 10.5498,9.28862"
         id="path369691"
         sodipodi:nodetypes="cc" />
      <circle
         id="circle369693"
         style="display:inline;fill:#000000;stroke:none;stroke-width:0.264583"
         cx="1849.6309"
         cy="371.67819"
         r="0.39687499" />
      <text
         xml:space="preserve"
         style="font-style:normal;font-variant:normal;font-weight:normal;font-stretch:normal;font-size:3.88056px;line-height:125%;font-family:'Public Sans';-inkscape-font-specification:'Public Sans, Normal';font-variant-ligatures:normal;font-variant-caps:normal;font-variant-numeric:normal;font-feature-settings:normal;text-align:start;letter-spacing:0px;word-spacing:0px;writing-mode:lr-tb;text-anchor:start;display:inline;fill:#000000;fill-opacity:1;stroke:none;stroke-width:0.264583px;stroke-linecap:butt;stroke-linejoin:miter;stroke-opacity:1"
         x="1847.7836"
         y="372.69699"
         id="text369697"><tspan
           sodipodi:role="line"
           id="tspan369695"
           x="1847.7836"
           y="372.69699"
           style="font-weight:bold;font-size:2.82223px;text-align:center;text-anchor:middle;stroke-width:0.264583px">0</tspan></text>
      <circle
         id="circle369699"
         style="display:inline;fill:#000000;stroke:none;stroke-width:0.264583"
         cx="1853.228"
         cy="360.37186"
         r="0.39687499" />
      <text
         xml:space="preserve"
         style="font-style:normal;font-variant:normal;font-weight:normal;font-stretch:normal;font-size:3.88056px;line-height:125%;font-family:'Public Sans';-inkscape-font-specification:'Public Sans, Normal';font-variant-ligatures:normal;font-variant-caps:normal;font-variant-numeric:normal;font-feature-settings:normal;text-align:start;letter-spacing:0px;word-spacing:0px;writing-mode:lr-tb;text-anchor:start;display:inline;fill:#000000;fill-opacity:1;stroke:none;stroke-width:0.264583px;stroke-linecap:butt;stroke-linejoin:miter;stroke-opacity:1"
         x="1853.2329"
         y="359.37009"
         id="text369703"><tspan
           sodipodi:role="line"
           id="tspan369701"
           x="1853.2329"
           y="359.37009"
           style="font-weight:bold;font-size:2.82223px;text-align:center;text-anchor:middle;stroke-width:0.264583px">4</tspan></text>
      <circle
         id="circle369705"
         style="display:inline;fill:#000000;stroke:none;stroke-width:0.264583"
         cx="1849.6309"
         cy="354.67822"
         r="0.39687499" />
      <text
         xml:space="preserve"
         style="font-style:normal;font-variant:normal;font-weight:normal;font-stretch:normal;font-size:3.88056px;line-height:125%;font-family:'Public Sans';-inkscape-font-specification:'Public Sans, Normal';font-variant-ligatures:normal;font-variant-caps:normal;font-variant-numeric:normal;font-feature-settings:normal;text-align:start;letter-spacing:0px;word-spacing:0px;writing-mode:lr-tb;text-anchor:start;display:inline;fill:#000000;fill-opacity:1;stroke:none;stroke-width:0.264583px;stroke-linecap:butt;stroke-linejoin:miter;stroke-opacity:1"
         x="1848.2711"
         y="355.69849"
         id="text369709"><tspan
           sodipodi:role="line"
           id="tspan369707"
           x="1848.2711"
           y="355.69849"
           style="font-weight:bold;font-size:2.82223px;text-align:center;text-anchor:middle;stroke-width:0.264583px">3</tspan></text>
      <circle
         id="circle369711"
         style="display:inline;fill:#000000;stroke:none;stroke-width:0.264583"
         cx="1863.7778"
         cy="369.66049"
         r="0.39687499" />
      <text
         xml:space="preserve"
         style="font-style:normal;font-variant:normal;font-weight:normal;font-stretch:normal;font-size:3.88056px;line-height:125%;font-family:'Public Sans';-inkscape-font-specification:'Public Sans, Normal';font-variant-ligatures:normal;font-variant-caps:normal;font-variant-numeric:normal;font-feature-settings:normal;text-align:start;letter-spacing:0px;word-spacing:0px;writing-mode:lr-tb;text-anchor:start;display:inline;fill:#000000;fill-opacity:1;stroke:none;stroke-width:0.264583px;stroke-linecap:butt;stroke-linejoin:miter;stroke-opacity:1"
         x="1865.6221"
         y="370.69485"
         id="text369715"><tspan
           sodipodi:role="line"
           id="tspan369713"
           x="1865.6221"
           y="370.69485"
           style="font-weight:bold;font-size:2.82223px;text-align:center;text-anchor:middle;stroke-width:0.264583px">1</tspan></text>
      <circle
         id="circle369717"
         style="display:inline;fill:#000000;stroke:none;stroke-width:0.264583"
         cx="1861.4453"
         cy="356.08496"
         r="0.39687499" />
      <text
         xml:space="preserve"
         style="font-style:normal;font-variant:normal;font-weight:normal;font-stretch:normal;font-size:3.88056px;line-height:125%;font-family:'Public Sans';-inkscape-font-specification:'Public Sans, Normal';font-variant-ligatures:normal;font-variant-caps:normal;font-variant-numeric:normal;font-feature-settings:normal;text-align:start;letter-spacing:0px;word-spacing:0px;writing-mode:lr-tb;text-anchor:start;display:inline;fill:#000000;fill-opacity:1;stroke:none;stroke-width:0.264583px;stroke-linecap:butt;stroke-linejoin:miter;stroke-opacity:1"
         x="1859.598"
         y="357.10376"
         id="text369721"><tspan
           sodipodi:role="line"
           id="tspan369719"
           x="1859.598"
           y="357.10376"
           style="font-weight:bold;font-size:2.82223px;text-align:center;text-anchor:middle;stroke-width:0.264583px">2</tspan></text>
    </g>
    <path
       id="path370410"
       style="color:#ff0000;display:inline;fill:none;stroke:#ff0000;stroke-width:0.375727;stroke-linecap:butt;stroke-linejoin:miter;stroke-miterlimit:4;stroke-dasharray:none"
       d="m 77.980397,125.9518 1.112004,0.33499 1.194514,0.36221 1.130339,0.34104 1.066204,0.3199 1.013112,0.30637 0.948975,0.28518 0.9031,0.27014 0.866466,0.25801 0.813375,0.2445 0.776742,0.23238 0.747249,0.21882 0.705316,0.21274 0.675896,0.19918 0.648356,0.19019 0.62089,0.18106 0.595303,0.17656 0.575052,0.16599 0.540297,0.15841 0.531166,0.15544 0.503663,0.14638 0.48529,0.1403 0.474207,0.13278 0.450572,0.13278 0.439489,0.12525 0.421154,0.11914 0.404734,0.11773 0.39365,0.11019 0.384482,0.10708 0.368064,0.10565 0.356978,0.0981 0.342513,0.10111 0.338644,0.092 0.322224,0.0906 0.320308,0.0861 0.303927,0.0845 0.294718,0.0815 0.29476,0.0815 0.27642,0.0754 0.27643,0.0754 0.26721,0.0724 0.25805,0.0694 0.25618,0.0649 0.24166,0.0679 0.23976,0.0633 0.23776,0.0588 0.22337,0.0619 0.22141,0.0572 0.22142,0.0574 0.21221,0.0543 0.20503,0.0558 0.20309,0.0513 0.20304,0.0513 0.19391,0.0483 0.18666,0.0498 0.18475,0.0453 0.18474,0.0453 0.17558,0.0422 0.17554,0.0422 0.16837,0.0437 0.16641,0.0392 0.16641,0.0392 0.15915,0.0408 0.15725,0.0361 0.14999,0.0378 0.15724,0.0361 0.14807,0.0331 0.14086,0.0345 0.14807,0.0331 0.13892,0.0301 0.13887,0.0304 0.13165,0.0315 0.13887,0.0301 0.13165,0.0315 0.12253,0.0285 0.12981,0.0271 0.12058,0.024 0.12252,0.0285 0.12056,0.024 0.12058,0.024 0.11332,0.0256 0.12058,0.024 0.11134,0.021 0.11332,0.0256 0.10423,0.0226 0.11136,0.021 0.10424,0.0226 0.10223,0.018 0.10423,0.0226 0.10223,0.018 0.10228,0.018 0.095,0.0196 0.10223,0.018 0.095,0.0196 0.0932,0.0153 0.095,0.0196 0.0932,0.0155 0.0932,0.0151 0.0858,0.0166 0.0931,0.0151 0.0839,0.0128 0.0859,0.0169 0.0859,0.0169 0.0839,0.0128 0.0839,0.0128 0.0839,0.0128 0.0839,0.0128 0.0767,0.0142 0.0839,0.0128 0.0767,0.0143 0.0747,0.009 0.0767,0.0142 0.0747,0.009 0.0767,0.0143 0.0747,0.009 0.0747,0.009 0.0747,0.009 0.0675,0.01 0.0747,0.009 0.0675,0.01 0.0729,0.004 0.0674,0.01 0.0656,0.006 0.0747,0.009 0.0656,0.006 0.0675,0.01 0.0656,0.006 0.0656,0.006 0.0656,0.006 0.0584,0.007 0.0656,0.006 0.0656,0.006 0.0585,0.007 h 0.0636 l 0.0585,0.007 0.0656,0.006 0.0564,0.004 0.0585,0.007 h 0.0636 l 0.0564,0.004 0.0585,0.007 0.0564,0.004 0.0564,0.004 0.0564,0.004 0.0564,0.004 0.0564,0.004 0.0564,0.004 0.0564,0.004 0.0564,0.004 h 0.0544 l 0.0491,0.004 0.0564,0.004 h 0.0544 l 0.0491,0.004 0.0564,0.004 0.0472,-1.2e-4 h 0.0544 l 0.0491,0.004 h 0.0544 l 0.0472,-10e-5 0.0564,0.004 0.0472,-1.1e-4 0.0472,-1.1e-4 h 0.0544 l 0.0471,-1.2e-4 0.0472,-1.4e-4 0.0471,-1.1e-4 h 0.0544 l 0.0472,-1.2e-4 0.0453,-0.004 0.0473,-1.5e-4 0.0472,-1.2e-4 0.0471,-1.1e-4 0.0453,-0.004 0.0473,-1.4e-4 0.0453,-0.004 0.0472,-1.6e-4 0.0453,-0.004 0.0471,-1.1e-4 0.0453,-0.004 0.0472,-1.2e-4 0.0453,-0.004 0.0453,-0.004 h 0.0399 l 0.0453,-0.004 0.0453,-0.004 0.0453,-0.004 0.0453,-0.004 0.0382,-0.004 0.0453,-0.004 0.0453,-0.004 0.0453,-0.004 0.0381,-0.004 0.0453,-0.004 0.0453,-0.004 0.0382,-0.004 0.0453,-0.004 0.0433,-0.009 0.0382,-0.004 0.0453,-0.004 0.0361,-0.007 0.0453,-0.004 0.0453,-0.004 0.0361,-0.007 0.0453,-0.004 0.0361,-0.007 0.0433,-0.009 0.0453,-0.004 0.0361,-0.007 0.0453,-0.004 0.0361,-0.007 0.0433,-0.009 0.0361,-0.007 0.0453,-0.004 0.0433,-0.009 0.0361,-0.007 0.0433,-0.009 0.0361,-0.007 0.0433,-0.009 0.0361,-0.007 0.0433,-0.009 0.0361,-0.007 0.0433,-0.009 0.0361,-0.007 0.0433,-0.009 0.0413,-0.0143 0.0361,-0.007 0.0433,-0.009 0.0361,-0.007 0.0413,-0.0144 0.0361,-0.007 0.0413,-0.0143 0.0433,-0.009 0.0361,-0.007 0.0413,-0.0142 0.0361,-0.007 0.0413,-0.0142 0.0413,-0.0143 0.0361,-0.007 0.0413,-0.0143 0.0342,-0.0128 0.0433,-0.009 0.0413,-0.0143 0.0342,-0.0128 0.0413,-0.0142 0.0413,-0.0143 0.0342,-0.0128 0.0413,-0.0143 0.0413,-0.0142 0.0413,-0.0143 0.0342,-0.0128 0.0413,-0.0144 0.0413,-0.0143 0.0413,-0.0143 0.0413,-0.0143 0.0324,-0.0165 0.0413,-0.0143 0.0413,-0.0142 0.0395,-0.018 0.0413,-0.0142 0.0395,-0.018 0.0413,-0.0143 0.0395,-0.018 0.0413,-0.0143 0.0395,-0.018 0.0413,-0.0143 0.0395,-0.018 0.0395,-0.018 0.0395,-0.018 0.0413,-0.0144 0.0395,-0.018 0.0467,-0.0196 0.0395,-0.018 0.0395,-0.018 0.0395,-0.018 0.0467,-0.0196 0.0395,-0.018 0.0395,-0.018 0.0447,-0.024 0.0395,-0.018 0.0467,-0.0196 0.0376,-0.0226 0.0467,-0.0196 0.0395,-0.018 0.0447,-0.0244 0.0376,-0.0229 0.0467,-0.0196 0.0447,-0.0244 0.0376,-0.0226 0.0467,-0.0196 0.0447,-0.024 0.0447,-0.024 0.0447,-0.024 0.0447,-0.024 0.0447,-0.0244 0.0447,-0.024 0.0447,-0.0244 0.0447,-0.024 0.0428,-0.029 0.0447,-0.024 0.052,-0.0256 0.0427,-0.029 0.0447,-0.0244 0.05,-0.0304 0.0427,-0.029 0.052,-0.0256 0.0427,-0.029 0.05,-0.0304 0.05,-0.0304 0.0427,-0.029 0.05,-0.0304 0.05,-0.0304 0.05,-0.0304 0.0481,-0.0345 0.05,-0.0304 0.0554,-0.0361 0.05,-0.0304 0.0481,-0.0345 0.0572,-0.0319 0.0481,-0.0345 0.0554,-0.0361 0.0481,-0.0345 0.0554,-0.0361 0.0554,-0.0361 0.0554,-0.0361 0.0534,-0.0409 0.0554,-0.0361 0.0534,-0.0409 0.0554,-0.0361 0.0534,-0.0407 0.0605,-0.0423 0.0534,-0.0409 0.0605,-0.0423 0.0605,-0.0423 0.0605,-0.0423 0.0605,-0.0423 0.0585,-0.047 0.0585,-0.047 0.0605,-0.0423 0.0657,-0.0486 0.0587,-0.0467 0.0658,-0.0486 0.0657,-0.0486 0.0639,-0.053 0.0657,-0.0486 0.0639,-0.0528 0.0711,-0.0544 0.0639,-0.0528 0.0711,-0.0544 0.0712,-0.0544 0.0692,-0.0589 0.0711,-0.0544 0.0692,-0.0589 0.0764,-0.0605 0.0692,-0.0589 0.0744,-0.065 0.0764,-0.0605 0.0816,-0.0665 0.0746,-0.0649 0.0816,-0.0665 0.0816,-0.0665 0.0798,-0.071 0.0817,-0.0665 0.0869,-0.0726 0.0798,-0.071 0.0851,-0.0771 0.0923,-0.0785 0.0851,-0.0771 0.0923,-0.0785 0.0923,-0.0785 0.0976,-0.0846 0.0903,-0.0831 0.0976,-0.0846 0.10281,-0.0907 0.0956,-0.0892 0.10282,-0.0907 0.10082,-0.0952 0.10807,-0.0967 0.10807,-0.0967 0.10608,-0.10125 0.11332,-0.10267 0.11332,-0.10268 0.11872,-0.10877 0.11857,-0.10878 0.11673,-0.11332 0.12398,-0.11474 0.12922,-0.12085 0.12923,-0.12085 0.12724,-0.12539 0.12354,-0.11659"
       inkscape:export-filename="C:\Users\Kurt\Downloads\tdoa.png"
       inkscape:export-xdpi="300"
       inkscape:export-ydpi="300" />
    <path
       id="path370211"
       style="color:#ff0000;display:inline;fill:none;stroke:#ff0000;stroke-width:0.375727;stroke-linecap:butt;stroke-linejoin:miter;stroke-miterlimit:4;stroke-dasharray:none"
       d="m 87.467675,157.27698 0.534473,-0.8292 0.513921,-0.79237 0.489836,-0.75754 0.46718,-0.73301 0.446289,-0.68642 0.423671,-0.66188 0.405598,-0.63573 0.387563,-0.60965 0.374076,-0.582 0.357466,-0.56616 0.338005,-0.52977 0.331956,-0.52114 0.313959,-0.49498 0.301934,-0.47759 0.291226,-0.47044 0.282436,-0.44126 0.2718,-0.43404 0.259779,-0.41672 0.252338,-0.39771 0.241744,-0.39061 0.235694,-0.38188 0.228292,-0.36296 0.217622,-0.35577 0.21484,-0.33526 0.205599,-0.33842 0.198235,-0.31941 0.193537,-0.32099 0.186174,-0.30205 0.18016,-0.29329 0.180125,-0.29337 0.168138,-0.27589 0.168063,-0.27598 0.162089,-0.26721 0.156039,-0.25854 0.151493,-0.26007 0.148639,-0.23957 0.144054,-0.2411 0.139324,-0.24272 0.136611,-0.22214 0.13191,-0.22378 0.132067,-0.22367 0.125975,-0.21507 0.124512,-0.20474 0.12001,-0.20635 0.120011,-0.2063 0.11389,-0.19764 0.112612,-0.18738 0.107911,-0.18891 0.107954,-0.18891 0.101976,-0.18024 0.101932,-0.18023 0.100542,-0.16998 0.09586,-0.17149 0.09584,-0.17156 0.09446,-0.16129 0.08986,-0.16281 0.0885,-0.15255 0.0899,-0.16284 0.0839,-0.15412 0.0825,-0.14387 0.0838,-0.15412 0.0778,-0.14544 0.0778,-0.1454 0.0764,-0.13519 0.0778,-0.14545 0.0764,-0.13519 0.0705,-0.12653 0.0718,-0.13675 0.0657,-0.12809 0.0704,-0.12653 0.0657,-0.12795 0.0659,-0.12795 0.0643,-0.11772 0.0659,-0.12795 0.0598,-0.11929 0.0644,-0.11772 0.0584,-0.10906 0.0598,-0.11929 0.0584,-0.10906 0.0538,-0.11062 0.0584,-0.10907 0.0538,-0.11062 0.0536,-0.11062 0.0524,-0.1004 0.0538,-0.11063 0.0524,-0.1004 0.0479,-0.10181 0.0524,-0.1004 0.0479,-0.10182 0.0479,-0.10182 0.0461,-0.0917 0.0479,-0.10182 0.0417,-0.0932 0.0466,-0.0916 0.0465,-0.0916 0.0418,-0.0932 0.0417,-0.0932 0.0417,-0.0932 0.0418,-0.0932 0.0403,-0.0829 0.0418,-0.0932 0.0403,-0.0829 0.0357,-0.0845 0.0403,-0.0829 0.0357,-0.0845 0.0403,-0.0829 0.0357,-0.0845 0.0357,-0.0845 0.0357,-0.0845 0.0342,-0.0743 0.0357,-0.0845 0.0342,-0.0743 0.0312,-0.0861 0.0342,-0.0743 0.0297,-0.0758 0.0357,-0.0845 0.0297,-0.0758 0.0342,-0.0743 0.0297,-0.0758 0.0297,-0.0758 0.0297,-0.0758 0.0286,-0.0656 0.0297,-0.0758 0.0297,-0.0758 0.0285,-0.0656 0.0252,-0.0774 0.0286,-0.0656 0.0297,-0.0758 0.0237,-0.0672 0.0286,-0.0656 0.0252,-0.0774 0.0237,-0.067 0.0286,-0.0656 0.0237,-0.0672 0.0237,-0.0672 0.0237,-0.0672 0.0237,-0.0672 0.0237,-0.067 0.0237,-0.0672 0.0237,-0.0672 0.0237,-0.067 0.0192,-0.0687 0.0222,-0.0569 0.0237,-0.0672 0.0192,-0.0687 0.0222,-0.057 0.0237,-0.067 0.0176,-0.0585 0.0192,-0.0687 0.0222,-0.057 0.0192,-0.0687 0.0177,-0.0584 0.0237,-0.0672 0.0177,-0.0585 0.0176,-0.0585 0.0192,-0.0687 0.0177,-0.0585 0.0177,-0.0585 0.0177,-0.0585 0.0192,-0.0687 0.0176,-0.0585 0.0128,-0.0599 0.0177,-0.0585 0.0177,-0.0585 0.0177,-0.0585 0.0128,-0.0599 0.0177,-0.0585 0.0128,-0.0599 0.0177,-0.0585 0.0128,-0.0599 0.0177,-0.0585 0.0128,-0.0599 0.0177,-0.0584 0.0128,-0.0599 0.0128,-0.0599 0.0162,-0.0483 0.0128,-0.0599 0.0128,-0.0599 0.0128,-0.0599 0.0128,-0.0599 0.0112,-0.0497 0.0128,-0.0599 0.0128,-0.0599 0.0128,-0.0599 0.0112,-0.0497 0.0128,-0.0599 0.0128,-0.0599 0.0112,-0.0497 0.0128,-0.0599 0.009,-0.0616 0.0112,-0.0497 0.0128,-0.0599 0.007,-0.0513 0.0128,-0.0599 0.0128,-0.0599 0.007,-0.0513 0.0128,-0.0599 0.007,-0.0513 0.009,-0.0616 0.0128,-0.0599 0.007,-0.0513 0.0128,-0.0599 0.007,-0.0513 0.009,-0.0615 0.007,-0.0513 0.0128,-0.0599 0.009,-0.0615 0.007,-0.0513 0.009,-0.0616 0.007,-0.0513 0.009,-0.0616 0.007,-0.0513 0.009,-0.0616 0.007,-0.0513 0.009,-0.0616 0.007,-0.0513 0.009,-0.0616 0.004,-0.0631 0.007,-0.0513 0.009,-0.0616 0.007,-0.0513 0.004,-0.0632 0.007,-0.0513 0.004,-0.0632 0.009,-0.0615 0.007,-0.0513 0.004,-0.063 0.007,-0.0513 0.004,-0.0631 0.004,-0.0632 0.007,-0.0513 0.004,-0.0632 0.004,-0.0528 0.009,-0.0616 0.004,-0.0632 0.004,-0.0528 0.004,-0.0632 0.004,-0.0632 0.004,-0.053 0.004,-0.0632 0.004,-0.0631 0.004,-0.0632 0.004,-0.0528 0.004,-0.0632 0.004,-0.0632 0.004,-0.0632 0.004,-0.0632 v -0.0544 l 0.004,-0.0632 0.004,-0.0631 v -0.0646 l 0.004,-0.0632 v -0.0646 l 0.004,-0.0632 v -0.0646 l 0.004,-0.0632 v -0.0646 l 0.004,-0.0632 v -0.0646 -0.0646 -0.0646 l 0.004,-0.0632 v -0.0646 -0.0748 -0.0646 -0.0646 -0.0646 -0.0748 -0.0646 -0.0646 l -0.004,-0.0765 v -0.0646 -0.0748 l -0.006,-0.0662 v -0.0748 -0.0646 l -0.004,-0.0765 -0.006,-0.0662 v -0.0748 l -0.004,-0.0765 -0.006,-0.0662 v -0.0748 l -0.004,-0.0764 -0.004,-0.0765 -0.004,-0.0765 -0.004,-0.0765 -0.004,-0.0765 -0.004,-0.0765 -0.004,-0.0766 -0.004,-0.0765 -0.009,-0.078 -0.004,-0.0765 -0.004,-0.0868 -0.009,-0.0781 -0.004,-0.0765 -0.007,-0.0883 -0.009,-0.0781 -0.004,-0.0868 -0.009,-0.0781 -0.007,-0.0883 -0.007,-0.0883 -0.009,-0.078 -0.007,-0.0883 -0.007,-0.0883 -0.007,-0.0883 -0.0112,-0.0897 -0.007,-0.0883 -0.0101,-0.1 -0.007,-0.0883 -0.0112,-0.0897 -0.006,-0.0986 -0.0112,-0.0897 -0.01,-0.1 -0.0112,-0.0897 -0.01,-0.1 -0.01,-0.1 -0.01,-0.1 -0.015,-0.10168 -0.01,-0.1 -0.015,-0.10168 -0.01,-0.1 -0.015,-0.10168 -0.0143,-0.1119 -0.015,-0.10168 -0.0143,-0.1119 -0.0143,-0.1119 -0.0143,-0.11191 -0.0143,-0.1119 -0.0184,-0.11346 -0.0184,-0.11347 -0.0143,-0.1119 -0.0169,-0.12369 -0.018,-0.11332 -0.0169,-0.12369 -0.0169,-0.12368 -0.0214,-0.12526 -0.0169,-0.12368 -0.0214,-0.12525 -0.0199,-0.13548 -0.0214,-0.12525 -0.0199,-0.13547 -0.0199,-0.13548 -0.0244,-0.13704 -0.0199,-0.13547 -0.0244,-0.13704 -0.0233,-0.14732 -0.0244,-0.13703 -0.0278,-0.14887 -0.0233,-0.14729 -0.0263,-0.15912 -0.0278,-0.14882 -0.0263,-0.15912 -0.0263,-0.15912 -0.0308,-0.16067 -0.0263,-0.15908 -0.0297,-0.17096 -0.0308,-0.16062 -0.0342,-0.1725 -0.0327,-0.18271 -0.0342,-0.17246 -0.0327,-0.18275 -0.0327,-0.18272 -0.0361,-0.19451 -0.0372,-0.1843 -0.0361,-0.19455 -0.0392,-0.20635 -0.0406,-0.19606 -0.0392,-0.20635 -0.0437,-0.20788 -0.0423,-0.21815 -0.0423,-0.21818 -0.047,-0.2197 -0.0456,-0.22998 -0.0346,-0.17412"
       inkscape:export-filename="C:\Users\Kurt\Downloads\tdoa.png"
       inkscape:export-xdpi="300"
       inkscape:export-ydpi="300" />
  </g>
</svg>
